<?xml version="1.0" encoding="UTF-8"?>
<svg version="1.1" xmlns="http://www.w3.org/2000/svg" width="512" height="512">
<path d="M0 0 C2.22292972 1.43344404 4.33765096 2.94773605 6.44921875 4.5390625 C7.31546875 5.1165625 8.18171875 5.6940625 9.07421875 6.2890625 C15.66509418 12.53304975 19.4543084 20.09369918 22.44921875 28.5390625 C23.11230045 30.20715868 23.77853582 31.87400796 24.44921875 33.5390625 C25.46121338 33.54522583 25.46121338 33.54522583 26.49365234 33.55151367 C29.60468036 33.58477958 32.7138344 33.65545758 35.82421875 33.7265625 C36.88511719 33.73236328 37.94601563 33.73816406 39.0390625 33.74414062 C47.6904346 33.98298219 54.26097426 35.98600201 60.921875 41.63671875 C61.70884766 42.60931641 61.70884766 42.60931641 62.51171875 43.6015625 C63.05957031 44.25253906 63.60742188 44.90351562 64.171875 45.57421875 C65.48916953 47.60051585 65.92662862 49.20425978 66.44921875 51.5390625 C67.46493706 51.52906975 67.46493706 51.52906975 68.50117493 51.51887512 C75.59098531 51.45216418 82.68070556 51.40711417 89.77075195 51.37426758 C92.41173936 51.35924269 95.05270207 51.338817 97.69360352 51.31274414 C101.50413126 51.27608372 105.31432719 51.25927244 109.125 51.24609375 C110.2931575 51.23060989 111.461315 51.21512604 112.66487122 51.19917297 C127.65826447 51.19614048 140.25034044 55.71469514 151.19140625 66.08984375 C154.72167408 69.91939034 157.12574113 73.90471658 159.44921875 78.5390625 C159.81966309 79.25827881 160.19010742 79.97749512 160.57177734 80.71850586 C164.71402015 90.19874124 163.88855902 100.10132355 163.69921875 110.2265625 C163.67911858 112.10349652 163.66087405 113.98045138 163.64453125 115.85742188 C163.60082438 120.41849056 163.53199259 124.97854238 163.44921875 129.5390625 C164.06994766 129.74066986 164.69067657 129.94227722 165.33021545 130.1499939 C166.14300461 130.41679962 166.95579376 130.68360535 167.79321289 130.95849609 C168.5995668 131.22197845 169.40592072 131.48546082 170.23670959 131.75692749 C178.88717237 134.814917 186.08464102 142.17448477 192.44921875 148.5390625 C194.15317825 148.73404294 195.85799041 148.9234199 197.56567383 149.08251953 C213.21104202 150.59710718 226.51738521 156.1421878 236.82421875 168.4140625 C240.3828237 173.18070104 243.20216026 178.03206689 245.44921875 183.5390625 C245.92875 184.71275391 245.92875 184.71275391 246.41796875 185.91015625 C247.96294516 190.4950168 248.52938161 194.51521537 248.2421875 199.33203125 C247.29600438 209.02250088 247.29600438 209.02250088 250.67578125 217.734375 C253.50364236 220.16587822 256.44404942 222.33388997 259.44921875 224.5390625 C270.03981164 236.65487262 271.17403448 251.70025342 270.63720703 267.00927734 C270.24733028 272.25590454 268.66676682 276.81178942 266.44921875 281.5390625 C266.06765625 282.36277344 265.68609375 283.18648438 265.29296875 284.03515625 C264.39141003 285.89301119 263.42825878 287.72084531 262.44921875 289.5390625 C262.99449219 290.20808594 263.53976562 290.87710937 264.1015625 291.56640625 C279.73699721 311.47819917 290.22708131 336.81356963 290.59765625 362.3203125 C290.61844238 363.52864746 290.63922852 364.73698242 290.66064453 365.98193359 C290.68593662 368.39620759 290.67767117 370.81111707 290.63232422 373.22509766 C290.49292259 379.26725059 290.49292259 379.26725059 292.98632812 384.53417969 C294.81290354 386.11137797 294.81290354 386.11137797 296.74902344 387.28857422 C298.86913497 388.84790956 299.4506003 390.11179572 300.44921875 392.5390625 C300.71664429 394.77937317 300.71664429 394.77937317 300.73974609 397.25317383 C300.7525058 398.18547318 300.7652655 399.11777252 300.77841187 400.07832336 C300.78175034 401.58449471 300.78175034 401.58449471 300.78515625 403.12109375 C300.79181305 404.16746506 300.79846985 405.21383636 300.80532837 406.29191589 C300.81545683 408.51189418 300.82014533 410.73190293 300.81982422 412.9519043 C300.82415359 416.30115278 300.86034964 419.64903539 300.8984375 422.99804688 C300.9794276 438.06508792 299.88128835 451.3032772 292.69921875 464.8515625 C292.18597046 465.84627563 292.18597046 465.84627563 291.66235352 466.86108398 C288.57642205 472.65434395 284.87526915 477.68760439 280.44921875 482.5390625 C279.93230469 483.1475 279.41539062 483.7559375 278.8828125 484.3828125 C267.41132572 497.03307362 248.51879464 505.56751322 231.67205906 506.81984413 C227.30166535 506.96418564 222.93186162 506.94446253 218.55969238 506.92674255 C216.87084109 506.93092191 215.18199261 506.93640271 213.49314928 506.94306237 C208.88012854 506.95745648 204.26728738 506.95329123 199.65425706 506.94589555 C194.66848994 506.94115127 189.68276098 506.95368476 184.69700623 506.96391296 C174.94088078 506.98108082 165.18481979 506.98194526 155.42868316 506.97670006 C147.49761991 506.97265387 139.56657566 506.97410724 131.63551331 506.97944832 C130.50548111 506.98019674 129.37544892 506.98094516 128.21117333 506.98171626 C125.9153275 506.98324778 123.61948169 506.98478613 121.32363588 506.98633123 C99.81008653 507.00004864 78.29657359 506.9946236 56.78302509 506.98314602 C37.11098532 506.9732114 17.43903959 506.98615965 -2.23298568 507.01008021 C-22.44709513 507.03447424 -42.66116079 507.04407851 -62.87528467 507.03742748 C-74.21810803 507.03393634 -85.56085905 507.03616063 -96.90367126 507.05367851 C-106.55794531 507.06840412 -116.21209606 507.069031 -125.8663677 507.0516076 C-130.78941273 507.04309884 -135.71223756 507.04094521 -140.63527107 507.05625916 C-145.14689532 507.07011939 -149.65811096 507.06532593 -154.16971165 507.04601992 C-155.7967416 507.04226376 -157.42380438 507.04517076 -159.05080503 507.05563157 C-173.9363545 507.14448969 -185.96165281 504.32920225 -197.23828125 494.1015625 C-198.00140625 493.2559375 -198.76453125 492.4103125 -199.55078125 491.5390625 C-200.03160156 491.06210937 -200.51242188 490.58515625 -201.0078125 490.09375 C-207.76004987 483.01672146 -211.66987364 472.97008437 -211.68500233 463.26604462 C-211.68735456 462.62429664 -211.68970679 461.98254867 -211.6921303 461.32135379 C-211.69882343 459.15623564 -211.69836198 456.99117745 -211.69795227 454.8260498 C-211.70125072 453.26387519 -211.70497625 451.70170142 -211.70909375 450.13952875 C-211.71912436 445.83494422 -211.72283226 441.53037363 -211.72548306 437.22577906 C-211.72938306 432.58753522 -211.73896172 427.94930245 -211.74769592 423.31106567 C-211.76747064 412.10267462 -211.77752856 400.89428265 -211.78642371 389.68587852 C-211.79080563 384.40844905 -211.79617275 379.13102059 -211.80141258 373.85359192 C-211.81842711 356.3107499 -211.83292086 338.76790851 -211.84016132 321.22505951 C-211.84207125 316.67119852 -211.84399157 312.11733753 -211.84594727 307.56347656 C-211.84643101 306.43162487 -211.84691475 305.29977317 -211.84741315 304.13362294 C-211.85571178 285.80214459 -211.88104488 267.47073154 -211.91352794 249.13928169 C-211.9466018 230.32103578 -211.96461045 211.50282303 -211.96780556 192.6845479 C-211.96997053 182.11794011 -211.97871713 171.55142749 -212.00426674 160.98484802 C-212.0259783 151.98470613 -212.03402195 142.98468251 -212.02429996 133.9845174 C-212.01975638 129.39378727 -212.02164482 124.80330115 -212.0410614 120.21260452 C-212.05870201 116.00538142 -212.05768815 111.79858016 -212.04216411 107.59135252 C-212.03978937 106.07375475 -212.04410463 104.5561277 -212.05599276 103.03857464 C-212.16336196 88.42065111 -208.46839536 75.69831434 -198.30078125 64.7890625 C-189.15559963 56.24818803 -177.3398281 51.3973265 -164.8425293 51.42553711 C-163.16135262 51.42565041 -163.16135262 51.42565041 -161.44621277 51.42576599 C-160.24708755 51.43092728 -159.04796234 51.43608856 -157.8125 51.44140625 C-156.57659622 51.4428212 -155.34069244 51.44423615 -154.06733704 51.44569397 C-150.7941978 51.45033632 -147.52110838 51.45930939 -144.24798584 51.47039795 C-140.90295877 51.48065846 -137.55792952 51.48511619 -134.21289062 51.49023438 C-127.65883475 51.50125343 -121.10481207 51.51798414 -114.55078125 51.5390625 C-114.24986572 50.5898291 -113.9489502 49.6405957 -113.63891602 48.66259766 C-112.57793823 45.61701772 -111.73262791 44.15310338 -109.48828125 41.9140625 C-108.96105469 41.36492188 -108.43382813 40.81578125 -107.890625 40.25 C-100.35821935 34.74216415 -93.14499749 33.91048972 -83.98828125 33.7890625 C-82.3321582 33.74458984 -82.3321582 33.74458984 -80.64257812 33.69921875 C-77.94524196 33.62915807 -75.24873798 33.57614782 -72.55078125 33.5390625 C-72.27488159 32.66241943 -72.27488159 32.66241943 -71.9934082 31.76806641 C-67.42407269 17.60181705 -60.47129199 7.17390976 -47.55078125 -0.4609375 C-32.60218428 -7.54974208 -14.64675055 -8.38879741 0 0 Z " fill="#010101" transform="translate(211.55078125,5.4609375)"/>
<path d="M0 0 C1.68117668 0.00022659 1.68117668 0.00022659 3.39631653 0.00045776 C4.59544174 0.01078033 5.79456696 0.02110291 7.0300293 0.03173828 C8.88388496 0.03598312 8.88388496 0.03598312 10.77519226 0.04031372 C14.04839802 0.0495986 17.32140449 0.06754445 20.59454346 0.08972168 C23.93955653 0.11024261 27.2845783 0.1191581 30.62963867 0.12939453 C37.18376285 0.15143287 43.7377168 0.18595175 50.29174805 0.22705078 C50.29174805 6.82705078 50.29174805 13.42705078 50.29174805 20.22705078 C48.87434326 20.23639648 47.45693848 20.24574219 45.99658203 20.25537109 C40.7202248 20.29534843 35.44444586 20.3611297 30.16845703 20.43457031 C27.88825936 20.46273489 25.60796488 20.48397179 23.32763672 20.49804688 C20.04303586 20.51953827 16.7595935 20.5662225 13.4753418 20.61767578 C11.95462318 20.61951874 11.95462318 20.61951874 10.40318298 20.62139893 C4.18735806 20.74901132 0.2400648 21.33555226 -4.70825195 25.22705078 C-8.67608823 30.83859692 -9.28551635 34.99981978 -9.21618652 41.77360535 C-9.22242649 42.7159811 -9.22866645 43.65835685 -9.2350955 44.62928945 C-9.25100984 47.77696094 -9.23842719 50.9238564 -9.22583008 54.0715332 C-9.23125176 56.33206127 -9.23837468 58.5925858 -9.24707031 60.85310364 C-9.26529777 66.98508176 -9.25823915 73.11679054 -9.24555397 79.24877334 C-9.23542715 85.66376582 -9.24481843 92.07873525 -9.25109863 98.49372864 C-9.25884035 109.9529422 -9.24641367 121.41200649 -9.22606128 132.87119482 C-9.20817819 143.26192813 -9.21130615 153.65248277 -9.22973633 164.04321289 C-9.25113785 176.11478143 -9.25911391 188.18621504 -9.24728727 200.25780946 C-9.24104475 206.64625835 -9.24023798 213.03458411 -9.25343323 219.42302513 C-9.2649658 225.42558904 -9.2570132 231.42781448 -9.2338562 237.43034172 C-9.22855598 239.63625272 -9.23010519 241.84219208 -9.23890686 244.04809189 C-9.24979342 247.05293149 -9.23618197 250.05667774 -9.21618652 253.06144714 C-9.22510941 253.93993905 -9.2340323 254.81843095 -9.24322557 255.72354382 C-9.19336625 259.57056072 -9.15345811 261.59155422 -6.90306854 264.80380726 C-4.6371754 266.56332906 -4.6371754 266.56332906 -1.08325195 266.16455078 C2.54691729 265.55196628 2.54691729 265.55196628 4.29174805 262.22705078 C4.49167793 259.21877455 4.57254368 256.30233731 4.56349182 253.29318237 C4.56857866 252.36844183 4.57366549 251.44370129 4.57890648 250.49093831 C4.59361889 247.37933377 4.59410189 244.26788694 4.59472656 241.15625 C4.60238421 238.93085419 4.61092989 236.70546128 4.62030029 234.48007202 C4.63860459 229.68209385 4.65062672 224.88415487 4.65783882 220.08614731 C4.66929737 212.50767498 4.69474042 204.92928961 4.72215271 197.3508606 C4.75909484 186.7332661 4.7898058 176.11567434 4.81494141 165.49804688 C4.81653871 164.82412675 4.81813601 164.15020663 4.81978171 163.45586468 C4.82138061 162.78108212 4.82297951 162.10629956 4.82462686 161.41106904 C4.84732564 151.83914399 4.87195672 142.26722652 4.89892578 132.6953125 C4.90082193 132.02160507 4.90271807 131.34789765 4.90467168 130.65377484 C4.93640746 119.43603077 4.97216081 108.2183015 5.00996727 97.00057614 C5.03495749 89.45836747 5.05435825 81.9161704 5.06934941 74.37393546 C5.07951767 69.69328124 5.09366316 65.01264499 5.10882568 60.33200455 C5.1150072 58.15224885 5.11945184 55.97248748 5.12208366 53.79272461 C5.12586583 50.83076666 5.13565321 47.8688891 5.14698792 44.9069519 C5.14660178 44.03255679 5.14621565 43.15816168 5.14581782 42.25726974 C5.17768352 36.34111531 5.17768352 36.34111531 6.29174805 35.22705078 C7.715667 35.08222929 9.14649981 35.00444716 10.5769043 34.95483398 C11.48875488 34.9226326 12.40060547 34.89043121 13.34008789 34.85725403 C17.54423364 34.74647635 21.74822194 34.66408966 25.95336914 34.60229492 C28.16509727 34.56072595 30.37654954 34.49944736 32.5871582 34.41772461 C51.09912649 33.74438543 51.09912649 33.74438543 56.44799805 37.36132812 C58.66674805 40.02001953 58.66674805 40.02001953 60.19018555 42.6730957 C64.05033701 47.36420216 69.40566278 48.88657095 75.32467651 49.58485413 C78.69476055 49.73662941 82.03954291 49.75570344 85.4128418 49.72314453 C87.24541283 49.72532738 87.24541283 49.72532738 89.11500549 49.72755432 C91.67907107 49.72590337 94.2431474 49.71443314 96.80712891 49.69360352 C100.74187836 49.66445722 104.67529468 49.67305059 108.61010742 49.68603516 C111.10685878 49.67980291 113.6036059 49.671416 116.1003418 49.66064453 C117.86745766 49.66504799 117.86745766 49.66504799 119.67027283 49.66954041 C120.75893143 49.65685623 121.84759003 49.64417206 122.96923828 49.63110352 C123.92724838 49.62570053 124.88525848 49.62029755 125.87229919 49.61473083 C128.74424891 49.15454437 129.53174439 48.49081509 131.29174805 46.22705078 C131.95174805 45.23705078 132.61174805 44.24705078 133.29174805 43.22705078 C136.39324183 42.54998906 139.56253759 42.71773007 142.72924805 42.72705078 C143.60129883 42.69869141 144.47334961 42.67033203 145.37182617 42.64111328 C147.78722708 42.63368699 149.93670689 42.6858481 152.29174805 43.22705078 C154.2644043 45.69580078 154.2644043 45.69580078 155.29174805 48.22705078 C157.85511558 49.50873455 159.7221454 49.382177 162.5925293 49.41992188 C163.70128418 49.4359848 164.81003906 49.45204773 165.95239258 49.46859741 C171.05035539 49.51311683 176.14822856 49.55459261 181.24633789 49.57714844 C183.92930685 49.59042445 186.61150371 49.61815375 189.29418945 49.65917969 C193.16860723 49.71419365 197.04199121 49.7358662 200.91674805 49.75048828 C202.1056665 49.77315765 203.29458496 49.79582703 204.51953125 49.81918335 C212.12212453 49.80007559 218.01842661 48.72734223 224.29174805 44.22705078 C226.20594425 41.89603634 226.20594425 41.89603634 227.4206543 39.45361328 C230.40504972 35.83511825 232.77418524 34.93009115 237.30297852 34.48779297 C243.61801986 34.18936364 249.91445173 34.39421378 256.22924805 34.60205078 C258.44858606 34.6386484 260.66799395 34.67124196 262.88745117 34.69970703 C266.92274796 34.76625002 270.95685735 34.84298074 274.99072266 34.97070312 C276.20362221 35.00809097 276.20362221 35.00809097 277.44102478 35.04623413 C279.29174805 35.22705078 279.29174805 35.22705078 280.29174805 36.22705078 C280.72713485 40.53147657 280.86249481 44.83998475 280.97143555 49.16259766 C281.01799333 50.61235521 281.08607446 52.06159459 281.17651367 53.50927734 C281.46649715 58.23341122 281.50861509 62.60465745 280.29174805 67.22705078 C277.71630492 69.83021264 275.37713852 71.24215418 272.06835938 72.78393555 C268.90778229 74.42661304 267.37154293 76.22804158 265.22924805 79.03955078 C260.41963896 84.17846643 255.68165509 84.19379691 249.02368164 84.63598633 C237.6190481 85.41814681 227.40112846 91.11767037 219.29174805 99.22705078 C217.94746383 99.32577049 216.59807017 99.3561252 215.25016785 99.35835266 C214.3795018 99.36236084 213.50883575 99.36636902 212.61178589 99.37049866 C211.64918854 99.36996994 210.68659119 99.36944122 209.69482422 99.36889648 C208.68673203 99.37237091 207.67863983 99.37584534 206.63999939 99.37942505 C204.4426396 99.38679741 202.2452723 99.39213486 200.04790306 99.39571571 C196.57275151 99.40285662 193.09774319 99.41850517 189.62263489 99.4370575 C179.73916591 99.48963972 169.85577381 99.53752054 159.97216797 99.55297852 C153.93436161 99.56304294 147.8969126 99.59233059 141.85924721 99.63429832 C139.55435193 99.6466374 137.24940622 99.65172431 134.94447899 99.64949989 C131.72154816 99.64715504 128.49964742 99.66925274 125.27685547 99.69702148 C124.32033081 99.69042007 123.36380615 99.68381866 122.3782959 99.67701721 C117.195222 99.72423046 117.195222 99.72423046 112.66377258 102.03361511 C110.96387008 104.30820471 110.96387008 104.30820471 111.35424805 107.85205078 C111.96683255 111.48222002 111.96683255 111.48222002 115.29174805 113.22705078 C118.31072708 113.44100479 121.24044391 113.53838221 124.26123047 113.54589844 C125.63714104 113.56096687 125.63714104 113.56096687 127.04084778 113.57633972 C130.07629767 113.60725936 133.11165902 113.62423128 136.1472168 113.64111328 C138.25044013 113.65981786 140.35365591 113.67939073 142.4568634 113.69979858 C147.99538727 113.75120077 153.53393549 113.79078322 159.0725708 113.82794189 C164.72316552 113.86793087 170.37365824 113.91904648 176.02416992 113.96923828 C187.11329106 114.06609331 198.20246969 114.15046743 209.29174805 114.22705078 C208.98430664 115.26152344 208.98430664 115.26152344 208.6706543 116.31689453 C208.2665332 117.72648437 208.2665332 117.72648437 207.85424805 119.16455078 C207.58741211 120.08107422 207.32057617 120.99759766 207.0456543 121.94189453 C206.11086261 126.01526139 205.67956231 130.07090721 205.29174805 134.22705078 C204.17310364 134.23069641 203.05445923 134.23434204 201.9019165 134.23809814 C191.36622835 134.27501915 180.83083327 134.33276007 170.29536819 134.41095352 C164.87878446 134.45048401 159.46236465 134.48264516 154.0456543 134.49804688 C148.81943181 134.51317673 143.59365985 134.54755694 138.36763763 134.5953598 C136.37256534 134.61021153 134.37742873 134.61809396 132.38230133 134.61893463 C129.59023349 134.62129464 126.79942051 134.64829592 124.00756836 134.68115234 C123.180383 134.67612198 122.35319763 134.67109161 121.50094604 134.66590881 C117.90854992 134.73143337 115.71129672 134.92949746 112.74310303 137.03460693 C110.95064896 139.2927574 110.95064896 139.2927574 111.35424805 142.85205078 C111.96683255 146.48222002 111.96683255 146.48222002 115.29174805 148.22705078 C118.1290253 148.44050125 120.87139317 148.53834635 123.71044922 148.54589844 C124.56920151 148.55594406 125.4279538 148.56598969 126.31272888 148.57633972 C129.15338466 148.60724948 131.99394587 148.62422848 134.8347168 148.64111328 C136.80341917 148.65981866 138.77211348 148.6793916 140.74079895 148.69979858 C145.92421722 148.75119233 151.1076615 148.79077928 156.29119873 148.82794189 C161.57985914 148.86793617 166.86841067 148.91904936 172.15698242 148.96923828 C182.53516122 149.06608331 192.9134014 149.15046063 203.29174805 149.22705078 C202.49881348 150.01982422 201.70587891 150.81259766 200.88891602 151.62939453 C195.7655333 156.75374047 192.01535715 161.5110052 188.59643555 167.97705078 C188.11678345 168.88003906 188.11678345 168.88003906 187.62744141 169.80126953 C186.84541387 171.27469711 186.0680988 172.75062421 185.29174805 174.22705078 C184.42366516 174.23069641 183.55558228 174.23434204 182.66119385 174.23809814 C174.48003455 174.27596583 166.29927439 174.33280438 158.11839676 174.41095352 C153.91249278 174.45046191 149.7067992 174.48263368 145.50073242 174.49804688 C141.44154223 174.51319165 137.38293037 174.54759747 133.3239975 174.5953598 C131.77551043 174.61019628 130.22694079 174.6180931 128.67838287 174.61893463 C126.50883847 174.62129941 124.34089875 174.64833503 122.17163086 174.68115234 C120.93697083 174.69003479 119.70231079 174.69891724 118.43023682 174.70806885 C115.2188797 174.99337736 115.2188797 174.99337736 112.85784912 177.03460693 C110.93277954 179.2697567 110.93277954 179.2697567 111.35424805 182.85205078 C111.96683255 186.48222002 111.96683255 186.48222002 115.29174805 188.22705078 C118.30492391 188.55710714 118.30492391 188.55710714 121.78271484 188.54589844 C122.7636058 188.56096687 122.7636058 188.56096687 123.76431274 188.57633972 C125.92318858 188.60720092 128.08194025 188.6242146 130.2409668 188.64111328 C131.73884654 188.65982262 133.23671573 188.67939585 134.73457336 188.69979858 C138.67511775 188.75115079 142.61569631 188.79075984 146.55639648 188.82794189 C150.57829261 188.86796227 154.60004617 188.91906356 158.62182617 188.96923828 C166.51170278 189.0660341 174.40164988 189.15042704 182.29174805 189.22705078 C182.42452148 190.25185547 182.55729492 191.27666016 182.6940918 192.33251953 C182.87238893 193.69320819 183.05077928 195.05388463 183.22924805 196.41455078 C183.35976563 197.42485352 183.35976563 197.42485352 183.49291992 198.45556641 C183.97000281 202.07786244 184.52186839 205.65508663 185.29174805 209.22705078 C184.42366516 209.23069641 183.55558228 209.23434204 182.66119385 209.23809814 C174.48003455 209.27596583 166.29927439 209.33280438 158.11839676 209.41095352 C153.91249278 209.45046191 149.7067992 209.48263368 145.50073242 209.49804688 C141.44154223 209.51319165 137.38293037 209.54759747 133.3239975 209.5953598 C131.77551043 209.61019628 130.22694079 209.6180931 128.67838287 209.61893463 C126.50883847 209.62129941 124.34089875 209.64833503 122.17163086 209.68115234 C120.93697083 209.69003479 119.70231079 209.69891724 118.43023682 209.70806885 C115.2188797 209.99337736 115.2188797 209.99337736 112.85784912 212.03460693 C110.93277954 214.2697567 110.93277954 214.2697567 111.35424805 217.85205078 C111.96683255 221.48222002 111.96683255 221.48222002 115.29174805 223.22705078 C117.84728202 223.42943055 120.2961941 223.51762339 122.85253906 223.51416016 C123.62029663 223.52099319 124.3880542 223.52782623 125.17907715 223.53486633 C126.84545018 223.54845262 128.51186489 223.55750701 130.1782856 223.56257629 C132.81301086 223.57085532 135.44738785 223.59134931 138.08201599 223.6151123 C144.62389817 223.67156617 151.16586472 223.70677627 157.70788574 223.74273682 C163.23750255 223.77393269 168.76695005 223.81308269 174.29643059 223.86299133 C176.89674477 223.88311574 179.49692933 223.89138981 182.0973053 223.89929199 C183.68499225 223.91225922 185.27267482 223.92577877 186.86035156 223.93994141 C187.58715622 223.9389595 188.31396088 223.9379776 189.06278992 223.93696594 C194.06405849 223.99936122 194.06405849 223.99936122 196.29174805 226.22705078 C195.95093901 234.74727681 191.974187 241.67073323 185.94445801 247.53112793 C180.50700456 251.00738492 174.00511383 250.22637712 167.77612305 250.08642578 C166.27256433 250.08378372 164.76899331 250.0852563 163.26544189 250.09063721 C159.32735503 250.09638937 155.39108093 250.05810765 151.45336914 250.0067749 C145.13839311 249.92894049 138.82352888 249.9053165 132.50812531 249.90686798 C130.30724204 249.89903651 128.10795922 249.86421728 125.90740967 249.82659912 C124.55863892 249.81952279 123.20986325 249.81331154 121.86108398 249.80810547 C120.09858307 249.78523468 120.09858307 249.78523468 118.30047607 249.76190186 C115.2025815 250.00049982 115.2025815 250.00049982 112.8772583 252.02667236 C110.9307043 254.26534469 110.9307043 254.26534469 111.35424805 257.85205078 C111.96683255 261.48222002 111.96683255 261.48222002 115.29174805 263.22705078 C117.93886563 263.55579066 117.93886563 263.55579066 120.95654297 263.54589844 C122.11751999 263.56576813 123.27849701 263.58563782 124.47465515 263.60610962 C125.72785049 263.61766083 126.98104584 263.62921204 128.2722168 263.64111328 C129.55534256 263.66047943 130.83846832 263.67984558 132.16047668 263.69979858 C135.56835755 263.7511237 138.97627791 263.7907471 142.38433838 263.82794189 C145.86333998 263.86797935 149.34217723 263.91907282 152.82104492 263.96923828 C159.64449254 264.06600185 166.46804562 264.15040517 173.29174805 264.22705078 C172.87022461 265.33564453 172.44870117 266.44423828 172.0144043 267.58642578 C171.46090204 269.04992326 170.90752309 270.51346738 170.35424805 271.97705078 C170.07645508 272.70666016 169.79866211 273.43626953 169.51245117 274.18798828 C169.2449707 274.89697266 168.97749023 275.60595703 168.7019043 276.33642578 C168.33270874 277.31047363 168.33270874 277.31047363 167.95605469 278.30419922 C167.28049369 280.25962678 166.76374759 282.21370835 166.29174805 284.22705078 C165.66169861 284.23069641 165.03164917 284.23434204 164.38250732 284.23809814 C157.82860341 284.2798879 151.2754021 284.34920877 144.72192383 284.43457031 C142.27570623 284.46280714 139.82939692 284.48400809 137.38305664 284.49804688 C133.86776691 284.51943809 130.35358293 284.56607116 126.83862305 284.61767578 C125.19624664 284.61951874 125.19624664 284.61951874 123.52069092 284.62139893 C122.49993469 284.64111755 121.47917847 284.66083618 120.42749023 284.68115234 C119.53036316 284.69003479 118.63323608 284.69891724 117.70892334 284.70806885 C114.49519235 285.39807604 113.26733508 286.64133165 111.29174805 289.22705078 C111.2025865 292.85355029 111.2025865 292.85355029 112.29174805 296.22705078 C115.46182106 298.34043279 116.3082009 298.48736906 119.94677734 298.54589844 C120.88752609 298.56576813 121.82827484 298.58563782 122.79753113 298.60610962 C123.8101149 298.61766083 124.82269867 298.62921204 125.8659668 298.64111328 C126.90493607 298.66047943 127.94390533 298.67984558 129.01435852 298.69979858 C132.33590461 298.75962377 135.65748529 298.80599182 138.97924805 298.85205078 C141.22991428 298.89022783 143.48056587 298.92927939 145.73120117 298.96923828 C151.25125349 299.06532767 156.77139391 299.1503666 162.29174805 299.22705078 C162.38290016 301.98430842 162.44980518 304.73854937 162.50268555 307.49658203 C162.53096436 308.27650513 162.55924316 309.05642822 162.58837891 309.85998535 C162.67203501 315.66788809 162.67203501 315.66788809 160.7097168 318.55322266 C158.91674805 319.91455078 158.91674805 319.91455078 157.01831055 320.92626953 C154.34676276 322.93899671 154.12377498 325.00219377 153.29174805 328.22705078 C153.00021218 331.49137952 152.98762652 334.74024548 152.9909668 338.01611328 C152.98453911 339.42562759 152.98453911 339.42562759 152.97798157 340.86361694 C152.97225318 342.84884845 152.97172699 344.83410093 152.97607422 346.81933594 C152.97921608 349.82150191 152.95581917 352.82266399 152.93041992 355.82470703 C152.89827719 365.75546793 153.24542041 374.68662937 156.29174805 384.22705078 C156.6355713 385.89158509 156.97024771 387.55806114 157.29174805 389.22705078 C137.62106627 389.25037831 117.95038728 389.26802924 98.27969456 389.27886295 C89.14690756 389.28402622 80.01412915 389.2910695 70.88134766 389.30249023 C62.92416931 389.31243613 54.96699717 389.31890398 47.00981277 389.32113928 C42.79388818 389.32244654 38.57798137 389.32553341 34.36206245 389.33278084 C30.39852621 389.33953957 26.43501515 389.34166805 22.47147369 389.34015846 C21.01252798 389.34043486 19.55358148 389.34244085 18.09464073 389.34625626 C16.1112821 389.35119114 14.12791012 389.34944889 12.14454651 389.3473053 C11.03194238 389.34822709 9.91933825 389.34914888 8.77301884 389.35009861 C6.29174805 389.22705078 6.29174805 389.22705078 5.29174805 388.22705078 C5.18770481 385.22975908 5.14813866 382.25475118 5.14990234 379.25683594 C5.14642792 378.31541245 5.14295349 377.37398895 5.13937378 376.40403748 C5.13200219 374.35236837 5.12666432 372.30069121 5.12308311 370.24901199 C5.1159427 367.00516461 5.10029495 363.76147071 5.08174133 360.51766968 C5.02915392 351.29223729 4.9812695 342.06688766 4.96582031 332.84130859 C4.95576158 327.20549374 4.92648967 321.57006231 4.8845005 315.93439865 C4.87215415 313.78218862 4.86707583 311.6299245 4.86929893 309.47768021 C4.87164118 306.4700528 4.84956723 303.46353288 4.82177734 300.45605469 C4.82837875 299.56138992 4.83498016 298.66672516 4.84178162 297.74494934 C4.88132041 293.01905275 4.88132041 293.01905275 2.45002747 289.17367554 C-0.47269369 287.89176543 -2.5522002 287.82415056 -5.70825195 288.22705078 C-7.7065809 289.75322912 -8.59180335 290.64694036 -9.091362 293.13558483 C-9.09509071 293.85986329 -9.09881943 294.58414175 -9.10266113 295.33036804 C-9.11401093 296.16434616 -9.12536072 296.99832428 -9.13705444 297.85757446 C-9.13412384 298.76929413 -9.13119324 299.68101379 -9.12817383 300.62036133 C-9.14087814 302.06477852 -9.14087814 302.06477852 -9.15383911 303.53837585 C-9.17728773 306.73030722 -9.17822905 309.92175844 -9.17700195 313.11376953 C-9.18410112 315.33234348 -9.19179976 317.55091559 -9.20007324 319.76948547 C-9.21353782 324.42588395 -9.21507896 329.08211286 -9.20922852 333.73852539 C-9.20334468 339.69610689 -9.23386085 345.65287 -9.2743454 351.61029339 C-9.30024593 356.19578917 -9.30309737 360.78108888 -9.29945374 365.36664772 C-9.3011442 367.56222393 -9.31077959 369.75780927 -9.32859802 371.95331383 C-9.35082279 375.0316807 -9.34106558 378.10840457 -9.32348633 381.18676758 C-9.33674957 382.08836609 -9.35001282 382.9899646 -9.36367798 383.91888428 C-9.28083024 390.18728696 -7.89874077 394.48584568 -3.70825195 399.22705078 C2.73869891 404.8449181 10.72229952 403.7222519 18.81469727 403.59838867 C20.39715604 403.58910635 21.97962711 403.58175142 23.56210327 403.57617188 C26.96107695 403.56105379 30.35968791 403.53427919 33.75851059 403.49894905 C39.13835503 403.44505063 44.51789613 403.42924003 49.89797974 403.42076111 C65.19351671 403.39169756 80.48847602 403.32663582 95.78344727 403.18969727 C104.23787565 403.11432652 112.69153365 403.07840122 121.1463052 403.08572572 C126.48984618 403.08818489 131.83009061 403.04257239 137.17297721 402.96114838 C140.50397005 402.92211325 143.83368795 402.9294254 147.16479874 402.94963837 C148.70274806 402.9498435 150.24083786 402.93135956 151.77828979 402.89224815 C163.38902171 402.61215957 163.38902171 402.61215957 168.0864296 406.5989666 C170.46170044 409.51780701 170.46170044 409.51780701 172.38344002 412.41403866 C174.95161366 416.19975013 178.15663517 418.84892205 181.6394043 421.76611328 C182.18467773 422.24822266 182.72995117 422.73033203 183.29174805 423.22705078 C183.29174805 423.55705078 183.29174805 423.88705078 183.29174805 424.22705078 C159.19581808 424.29717023 135.09990343 424.35005339 111.00389194 424.3824873 C99.81538543 424.39794803 88.62694236 424.41902243 77.43847656 424.45336914 C67.68520866 424.48329573 57.93198671 424.50263156 48.17867416 424.50931627 C43.01564497 424.51322298 37.85274722 424.52238789 32.68976021 424.54424095 C27.82658657 424.56465754 22.96359809 424.57087411 18.10038567 424.56637383 C16.31905485 424.56719671 14.53771761 424.57313145 12.75642395 424.58466721 C-0.74235146 424.66777157 -10.7231249 423.57247518 -21.27075195 414.22705078 C-29.70128861 405.26171404 -30.43864785 394.42730797 -30.33644104 382.68403625 C-30.34149542 381.14153492 -30.34873109 379.59903948 -30.35793918 378.05655736 C-30.37676132 373.84805765 -30.36468506 369.6401439 -30.34721625 365.43165958 C-30.33379161 360.88152326 -30.34929738 356.33146982 -30.36103821 351.78134155 C-30.37937992 342.88041802 -30.37092628 333.97971457 -30.35294998 325.07879797 C-30.33890484 317.84421023 -30.3350353 310.60968209 -30.33839226 303.37508202 C-30.3388697 302.34409666 -30.33934714 301.3131113 -30.33983905 300.25088396 C-30.34086541 298.15627294 -30.34192077 296.06166193 -30.34300482 293.96705093 C-30.35156453 275.46244638 -30.33491912 256.95794788 -30.30517578 238.45336914 C-30.27632761 220.50540718 -30.26926174 202.55759793 -30.28466797 184.60961914 C-30.30143345 165.05142108 -30.30546176 145.49329544 -30.28795761 125.93509549 C-30.28611326 123.84925442 -30.28427854 121.76341334 -30.28245354 119.67757225 C-30.28154145 118.65136538 -30.28062936 117.62515851 -30.27968963 116.56785447 C-30.27408737 109.34186299 -30.27738841 102.11590693 -30.28399849 94.88991737 C-30.29173409 86.08424231 -30.28497048 77.27871749 -30.25982345 68.47307269 C-30.24733518 63.98178335 -30.24117384 59.49072786 -30.25236511 54.9994297 C-30.26242183 50.88577327 -30.25391764 46.77258273 -30.23078393 42.6589829 C-30.22563406 41.17333102 -30.2271695 39.68763724 -30.23617858 38.20200375 C-30.28179619 29.99489097 -29.95554234 23.38273182 -25.70825195 16.22705078 C-25.02182617 15.03015625 -25.02182617 15.03015625 -24.3215332 13.80908203 C-18.45832891 5.83301133 -10.13146381 -0.04574024 0 0 Z " fill="#FEF0CE" transform="translate(44.708251953125,72.77294921875)"/>
<path d="M0 0 C0.78632813 0.24492187 1.57265625 0.48984375 2.3828125 0.7421875 C16.16546061 5.62444216 25.65515689 15.31908668 32.375 28.0625 C35.7687426 35.3018694 37.09360991 41.29550935 37.0390625 49.28125 C37.03342285 50.35439453 37.0277832 51.42753906 37.02197266 52.53320312 C37.01472168 53.34724609 37.0074707 54.16128906 37 55 C35.92516357 55.01458252 34.85032715 55.02916504 33.74291992 55.04418945 C29.75625283 55.1021489 25.77015199 55.17938129 21.78393555 55.26245117 C20.05844307 55.29571172 18.33284151 55.32374019 16.60717773 55.34643555 C14.12696834 55.37996153 11.6477597 55.43227406 9.16796875 55.48828125 C8.01001045 55.49786613 8.01001045 55.49786613 6.82865906 55.50764465 C2.69304615 55.60777434 2.69304615 55.60777434 -0.98706055 57.31323242 C-2.72157566 60.20158261 -2.34946739 62.73830432 -2 66 C-0.9825961 67.83031139 -0.9825961 67.83031139 1 69 C4.22376259 69.46009861 4.22376259 69.46009861 7.99771118 69.39199829 C8.71419055 69.39793955 9.43066993 69.40388081 10.16886079 69.41000211 C12.57578396 69.42634611 14.98219319 69.42133809 17.38916016 69.41650391 C19.11210218 69.42388088 20.83503897 69.43258493 22.55796814 69.44252014 C27.24161968 69.46588688 31.92513879 69.47099499 36.60884142 69.47317934 C41.50248719 69.47882942 46.39604596 69.5020945 51.28964233 69.52377319 C60.56023966 69.56233241 69.83081218 69.58652949 79.1014694 69.60489786 C95.71675233 69.63828599 112.33196113 69.69591438 128.94715536 69.75888956 C134.78333786 69.78043963 140.61949448 69.79567583 146.45570779 69.80572915 C150.07765557 69.81272411 153.69958476 69.82360081 157.32151985 69.83537102 C159.00783342 69.83994673 160.69415271 69.8427806 162.38047218 69.84379387 C164.67243891 69.84535469 166.96430868 69.85290452 169.2562561 69.86196899 C171.184794 69.86580314 171.184794 69.86580314 173.15229225 69.86971474 C176 70 176 70 177 71 C177.11369238 73.69479602 177.16419384 76.36291431 177.16796875 79.05859375 C177.17129715 79.87691177 177.17462555 80.6952298 177.17805481 81.53834534 C177.18313211 83.2793827 177.18546289 85.02042985 177.18530273 86.76147461 C177.18746526 89.39518985 177.20554477 92.0284697 177.22460938 94.66210938 C177.28159983 111.18766791 177.28159983 111.18766791 175 119 C174.67902344 120.10988281 174.35804688 121.21976562 174.02734375 122.36328125 C167.59371664 139.77327576 156.5712338 151.67210954 140 160 C131.85035299 163.50180145 124.54362521 165.11981085 115.64634705 165.14044189 C114.5682326 165.14489858 114.5682326 165.14489858 113.46833807 165.1494453 C111.07124661 165.15808409 108.67420538 165.15963646 106.27709961 165.16113281 C104.55348607 165.16576451 102.82987355 165.17078964 101.10626221 165.17617798 C96.4302743 165.18927258 91.75430074 165.19574152 87.07829738 165.20018864 C84.15243702 165.20312491 81.22658053 165.20723082 78.30072212 165.21169281 C69.13356925 165.22536175 59.96642529 165.23503062 50.79926294 165.2388947 C40.24149206 165.24337015 29.68385098 165.26089675 19.12611955 165.2898953 C10.95006421 165.31156708 2.77404523 165.32160196 -5.40203851 165.32293582 C-10.27781735 165.32398017 -15.15347407 165.32980859 -20.02922249 165.34775543 C-24.62164772 165.36433077 -29.2138603 165.36634607 -33.80630493 165.35761642 C-35.48275259 165.35685101 -37.15921213 165.36112256 -38.83563042 165.37107468 C-59.03656626 165.48387021 -75.82211668 160.95958987 -90.6328125 146.56640625 C-102.88674754 133.28119945 -108.17868188 117.76987585 -108.1328125 99.94140625 C-108.13424759 98.69676857 -108.13424759 98.69676857 -108.13571167 97.42698669 C-108.1363873 95.69001183 -108.13457644 93.95303436 -108.13037109 92.21606445 C-108.12496595 89.54567922 -108.13036128 86.87545853 -108.13671875 84.20507812 C-108.13605879 82.51302046 -108.13477935 80.8209629 -108.1328125 79.12890625 C-108.13483673 78.32796036 -108.13686096 77.52701447 -108.13894653 76.70179749 C-108.11498308 71.11498308 -108.11498308 71.11498308 -107 70 C-104.58784532 69.8856829 -102.20313469 69.83518203 -99.78979492 69.82641602 C-98.65804588 69.8163855 -98.65804588 69.8163855 -97.50343323 69.80615234 C-95.85938848 69.79206887 -94.21532379 69.78018541 -92.57124901 69.77020454 C-89.96981484 69.75383923 -87.36852784 69.73060239 -84.76716614 69.70530701 C-77.36885883 69.63441514 -69.97049038 69.57443844 -62.57202148 69.52319336 C-58.0515027 69.49139904 -53.53115072 69.45011827 -49.01076698 69.40299797 C-47.28642086 69.38697572 -45.56203624 69.37465518 -43.83763695 69.36609077 C-41.42438207 69.35393524 -39.01151894 69.32978343 -36.59838867 69.30297852 C-35.52828049 69.3020948 -35.52828049 69.3020948 -34.43655396 69.30119324 C-30.85242834 69.24844652 -27.93017614 69.20003296 -25 67 C-23.8283633 63.63239813 -23.8283633 63.63239813 -24 60 C-25.3591872 57.62343579 -25.3591872 57.62343579 -28 56 C-31.04261337 55.39124401 -34.04504099 55.39507698 -37.140625 55.390625 C-38.02280701 55.37408875 -38.90498901 55.35755249 -39.81390381 55.34051514 C-42.6260065 55.29200806 -45.43756832 55.27065845 -48.25 55.25 C-50.15888142 55.22184254 -52.06773761 55.19191543 -53.9765625 55.16015625 C-58.65099714 55.08624846 -63.32513106 55.03669045 -68 55 C-68.27044315 38.50797583 -64.74305958 25.35784821 -53.19921875 13.06640625 C-38.83215092 -0.43302338 -19.13446951 -6.09779798 0 0 Z " fill="#9AE0EB" transform="translate(320,332)"/>
<path d="M0 0 C4.802902 -0.61488077 9.21585513 -0.84396179 14 0 C16.7710136 2.23861008 18.56394625 4.47334616 20.546875 7.421875 C25.53270249 12.6617574 32.15451701 14.20544414 39.22827148 14.50170898 C41.52579773 14.52111343 43.82359258 14.51826912 46.12109375 14.49609375 C47.95366478 14.4982766 47.95366478 14.4982766 49.82325745 14.50050354 C52.38732303 14.49885259 54.95139935 14.48738236 57.51538086 14.46655273 C61.45013031 14.43740644 65.38354664 14.44599981 69.31835938 14.45898438 C71.81511073 14.45275213 74.31185785 14.44436522 76.80859375 14.43359375 C78.57570961 14.43799721 78.57570961 14.43799721 80.37852478 14.44248962 C81.46718338 14.42980545 82.55584198 14.41712128 83.67749023 14.40405273 C84.63550034 14.39864975 85.59351044 14.39324677 86.58055115 14.38768005 C89.45250086 13.92749359 90.23999634 13.26376431 92 11 C92.66 10.01 93.32 9.02 94 8 C97.10149378 7.32293828 100.27078954 7.49067929 103.4375 7.5 C104.74557617 7.45746094 104.74557617 7.45746094 106.08007812 7.4140625 C108.49547904 7.40663621 110.64495885 7.45879732 113 8 C114.97265625 10.46875 114.97265625 10.46875 116 13 C118.56336754 14.28168377 120.43039735 14.15512622 123.30078125 14.19287109 C124.40953613 14.20893402 125.51829102 14.22499695 126.66064453 14.24154663 C131.75860734 14.28606604 136.85648052 14.32754183 141.95458984 14.35009766 C144.6375588 14.36337367 147.31975566 14.39110297 150.00244141 14.43212891 C153.87685918 14.48714286 157.75024317 14.50881542 161.625 14.5234375 C163.40837769 14.55744156 163.40837769 14.55744156 165.2277832 14.59213257 C172.83037649 14.57302481 178.72667856 13.50029145 185 9 C186.9141962 6.66898556 186.9141962 6.66898556 188.12890625 4.2265625 C191.11330168 0.60806747 193.48243719 -0.29695963 198.01123047 -0.73925781 C204.32627182 -1.03768714 210.62270368 -0.832837 216.9375 -0.625 C219.15683802 -0.58840238 221.3762459 -0.55580882 223.59570312 -0.52734375 C227.63099992 -0.46080076 231.66510931 -0.38407004 235.69897461 -0.25634766 C236.91187416 -0.21895981 236.91187416 -0.21895981 238.14927673 -0.18081665 C240 0 240 0 241 1 C241.4353868 5.30442579 241.57074676 9.61293397 241.6796875 13.93554688 C241.72624528 15.38530443 241.79432641 16.83454381 241.88476562 18.28222656 C242.17474911 23.00636044 242.21686705 27.37760667 241 32 C238.42455688 34.60316185 236.08539048 36.0151034 232.77661133 37.55688477 C229.61603424 39.19956226 228.07979488 41.0009908 225.9375 43.8125 C221.12789092 48.95141565 216.38990704 48.96674612 209.73193359 49.40893555 C198.32730005 50.19109603 188.10938041 55.89061959 180 64 C178.65571578 64.09871971 177.30632212 64.12907442 175.9584198 64.13130188 C175.08775375 64.13531006 174.21708771 64.13931824 173.32003784 64.14344788 C172.35744049 64.14291916 171.39484314 64.14239044 170.40307617 64.1418457 C169.39498398 64.14532013 168.38689178 64.14879456 167.34825134 64.15237427 C165.15089156 64.15974663 162.95352425 64.16508408 160.75615501 64.16866493 C157.28100346 64.17580584 153.80599514 64.19145439 150.33088684 64.21000671 C140.44741786 64.26258894 130.56402576 64.31046976 120.68041992 64.32592773 C114.64261357 64.33599215 108.60516455 64.36527981 102.56749916 64.40724754 C100.26260388 64.41958662 97.95765818 64.42467353 95.65273094 64.42244911 C92.42980011 64.42010426 89.20789937 64.44220196 85.98510742 64.4699707 C85.02858276 64.46336929 84.07205811 64.45676788 83.08654785 64.44996643 C77.90347395 64.49717968 77.90347395 64.49717968 73.37202454 66.80656433 C71.67212204 69.08115393 71.67212204 69.08115393 72.0625 72.625 C72.6750845 76.25516924 72.6750845 76.25516924 76 78 C79.01897904 78.21395401 81.94869586 78.31133143 84.96948242 78.31884766 C86.34539299 78.33391609 86.34539299 78.33391609 87.74909973 78.34928894 C90.78454963 78.38020858 93.81991098 78.3971805 96.85546875 78.4140625 C98.95869208 78.43276708 101.06190786 78.45233995 103.16511536 78.4727478 C108.70363923 78.52414999 114.24218745 78.56373244 119.78082275 78.60089111 C125.43141748 78.64088009 131.0819102 78.6919957 136.73242188 78.7421875 C147.82154301 78.83904253 158.91072164 78.92341665 170 79 C169.69255859 80.03447266 169.69255859 80.03447266 169.37890625 81.08984375 C168.97478516 82.49943359 168.97478516 82.49943359 168.5625 83.9375 C168.29566406 84.85402344 168.02882812 85.77054687 167.75390625 86.71484375 C166.81911457 90.78821061 166.38781426 94.84385643 166 99 C164.88135559 99.00364563 163.76271118 99.00729126 162.61016846 99.01104736 C152.0744803 99.04796837 141.53908522 99.10570929 131.00362015 99.18390274 C125.58703641 99.22343323 120.1706166 99.25559438 114.75390625 99.27099609 C109.52768377 99.28612595 104.3019118 99.32050616 99.07588959 99.36830902 C97.08081729 99.38316075 95.08568068 99.39104318 93.09055328 99.39188385 C90.29848544 99.39424386 87.50767246 99.42124513 84.71582031 99.45410156 C83.88863495 99.4490712 83.06144958 99.44404083 82.209198 99.43885803 C78.61680188 99.50438259 76.41954867 99.70244668 73.45135498 101.80755615 C71.65890091 104.06570662 71.65890091 104.06570662 72.0625 107.625 C72.6750845 111.25516924 72.6750845 111.25516924 76 113 C78.83727725 113.21345047 81.57964512 113.31129557 84.41870117 113.31884766 C85.27745346 113.32889328 86.13620575 113.3389389 87.02098083 113.34928894 C89.86163662 113.3801987 92.70219782 113.3971777 95.54296875 113.4140625 C97.51167112 113.43276788 99.48036543 113.45234082 101.4490509 113.4727478 C106.63246917 113.52414154 111.81591345 113.5637285 116.99945068 113.60089111 C122.2881111 113.64088539 127.57666262 113.69199858 132.86523438 113.7421875 C143.24341317 113.83903253 153.62165335 113.92340985 164 114 C163.20706543 114.79277344 162.41413086 115.58554688 161.59716797 116.40234375 C156.47378525 121.52668969 152.7236091 126.28395442 149.3046875 132.75 C148.8250354 133.65298828 148.8250354 133.65298828 148.33569336 134.57421875 C147.55366582 136.04764633 146.77635075 137.52357343 146 139 C145.13191711 139.00364563 144.26383423 139.00729126 143.3694458 139.01104736 C135.1882865 139.04891505 127.00752634 139.1057536 118.82664871 139.18390274 C114.62074473 139.22341113 110.41505115 139.2555829 106.20898438 139.27099609 C102.14979418 139.28614087 98.09118232 139.32054669 94.03224945 139.36830902 C92.48376238 139.3831455 90.93519274 139.39104232 89.38663483 139.39188385 C87.21709042 139.39424863 85.04915071 139.42128424 82.87988281 139.45410156 C81.64522278 139.46298401 80.41056274 139.47186646 79.13848877 139.48101807 C75.92713165 139.76632658 75.92713165 139.76632658 73.56610107 141.80755615 C71.6410315 144.04270592 71.6410315 144.04270592 72.0625 147.625 C72.6750845 151.25516924 72.6750845 151.25516924 76 153 C79.01317587 153.33005636 79.01317587 153.33005636 82.4909668 153.31884766 C83.47185776 153.33391609 83.47185776 153.33391609 84.4725647 153.34928894 C86.63144054 153.38015014 88.79019221 153.39716381 90.94921875 153.4140625 C92.4470985 153.43277183 93.94496768 153.45234507 95.44282532 153.4727478 C99.3833697 153.52410001 103.32394827 153.56370905 107.26464844 153.60089111 C111.28654457 153.64091149 115.30829813 153.69201278 119.33007812 153.7421875 C127.21995473 153.83898331 135.10990183 153.92337626 143 154 C143.13277344 155.02480469 143.26554688 156.04960937 143.40234375 157.10546875 C143.58064088 158.4661574 143.75903123 159.82683385 143.9375 161.1875 C144.06801758 162.19780273 144.06801758 162.19780273 144.20117188 163.22851562 C144.67825477 166.85081166 145.23012035 170.42803585 146 174 C145.13191711 174.00364563 144.26383423 174.00729126 143.3694458 174.01104736 C135.1882865 174.04891505 127.00752634 174.1057536 118.82664871 174.18390274 C114.62074473 174.22341113 110.41505115 174.2555829 106.20898438 174.27099609 C102.14979418 174.28614087 98.09118232 174.32054669 94.03224945 174.36830902 C92.48376238 174.3831455 90.93519274 174.39104232 89.38663483 174.39188385 C87.21709042 174.39424863 85.04915071 174.42128424 82.87988281 174.45410156 C81.64522278 174.46298401 80.41056274 174.47186646 79.13848877 174.48101807 C75.92713165 174.76632658 75.92713165 174.76632658 73.56610107 176.80755615 C71.6410315 179.04270592 71.6410315 179.04270592 72.0625 182.625 C72.6750845 186.25516924 72.6750845 186.25516924 76 188 C78.55553398 188.20237977 81.00444606 188.29057261 83.56079102 188.28710938 C84.32854858 188.29394241 85.09630615 188.30077545 85.8873291 188.30781555 C87.55370213 188.32140184 89.22011685 188.33045623 90.88653755 188.33552551 C93.52126281 188.34380454 96.1556398 188.36429852 98.79026794 188.38806152 C105.33215012 188.44451539 111.87411668 188.47972549 118.4161377 188.51568604 C123.9457545 188.54688191 129.47520201 188.58603191 135.00468254 188.63594055 C137.60499672 188.65606496 140.20518128 188.66433903 142.80555725 188.67224121 C144.3932442 188.68520844 145.98092678 188.69872799 147.56860352 188.71289062 C148.29540817 188.71190872 149.02221283 188.71092682 149.77104187 188.70991516 C154.77231044 188.77231044 154.77231044 188.77231044 157 191 C156.65017067 199.74573326 152.58782484 206.30135856 146.44015503 212.28408813 C141.94974915 215.44173207 137.27565586 215.2011684 131.94140625 215.16796875 C130.79768051 215.18273758 129.65395477 215.19750641 128.47557068 215.21272278 C126.06605979 215.23124412 123.65631288 215.22920067 121.24682617 215.20776367 C117.57372589 215.18756174 113.91212308 215.26859578 110.24023438 215.35742188 C92.20066814 215.51885045 92.20066814 215.51885045 87.59472656 211.80566406 C85.26825427 208.98794858 83.65425597 206.25017612 82 203 C80.77503058 201.35779489 79.51777449 199.73908494 78.2265625 198.1484375 C65.83431406 181.81734498 55.03012366 164.86843691 45 147 C44.61634277 146.32598145 44.23268555 145.65196289 43.83740234 144.95751953 C38.7246197 135.93403328 34.35611771 126.60287393 30.21066284 117.1022644 C29.65629551 115.8320358 29.09864632 114.56323416 28.53762817 113.29592896 C27.74964747 111.50869885 26.97993207 109.71344985 26.2109375 107.91796875 C25.76024902 106.87406982 25.30956055 105.8301709 24.84521484 104.75463867 C23.94304964 101.81439317 23.69456367 100.74869621 25 98 C26.84179688 95.9128418 26.84179688 95.9128418 29.21875 93.69921875 C30.06824219 92.88646484 30.91773437 92.07371094 31.79296875 91.23632812 C33.59181821 89.54260623 35.39648949 87.85504547 37.20703125 86.17382812 C42.51593377 81.41365313 42.51593377 81.41365313 45.1875 75.05078125 C45.23228816 71.95182904 45.23228816 71.95182904 43.5 69.5 C41.02975412 67.73167501 41.02975412 67.73167501 37.80859375 67.96484375 C32.60808689 69.37831485 30.1480874 72.18095935 26.5625 76.0625 C25.92634766 76.72572266 25.29019531 77.38894531 24.63476562 78.07226562 C23.07532388 79.70205813 21.53165061 81.34413568 20 83 C18.515 82.505 18.515 82.505 17 82 C16.09619141 80.10839844 16.09619141 80.10839844 15.3515625 77.609375 C14.93076416 76.22093384 14.93076416 76.22093384 14.50146484 74.80444336 C14.21223145 73.79647705 13.92299805 72.78851074 13.625 71.75 C13.31900879 70.70658447 13.01301758 69.66316895 12.69775391 68.58813477 C8.26936243 53.26738488 4.85376874 37.90599563 2.1875 22.1875 C1.96819824 20.90544678 1.74889648 19.62339355 1.52294922 18.30249023 C0.51208107 12.12509862 -0.27492748 6.26049139 0 0 Z " fill="#FEF7E5" transform="translate(84,108)"/>
<path d="M0 0 C2.69310405 2.07753741 4.99233676 4.30293927 7.34765625 6.75390625 C12.77063032 12.36783011 17.10027721 13.9937393 24.84765625 14.44140625 C34.66324063 15.02741129 43.49984802 17.99613364 50.59765625 25.00390625 C59.7592074 35.8244908 61.00690872 45.59339091 61.125 59.38476562 C61.27413447 66.3458364 61.68962196 71.13591374 66.8671875 76.2421875 C67.70636719 76.92667969 68.54554688 77.61117187 69.41015625 78.31640625 C77.44944943 85.31270075 82.79375576 93.29241633 83.9140625 104.0390625 C84.20544858 111.92528576 82.85988341 118.80081343 79.59765625 126.00390625 C78.93765625 126.66390625 78.27765625 127.32390625 77.59765625 128.00390625 C76.30794922 127.11638672 76.30794922 127.11638672 74.9921875 126.2109375 C58.99436855 115.43019519 43.27476343 110.70790573 23.91015625 113.69140625 C6.47301143 117.43162222 -8.13498108 128.06708793 -18.80078125 142.02734375 C-19.32929688 142.67960938 -19.8578125 143.331875 -20.40234375 144.00390625 C-20.73234375 144.00390625 -21.06234375 144.00390625 -21.40234375 144.00390625 C-22.23592852 133.01448042 -13.41853521 123.86848528 -6.65234375 115.81640625 C2.12350022 105.72558311 12.00163819 97.98913413 23.48144531 91.17480469 C27.13966187 89.19932587 27.13966187 89.19932587 29.59765625 86.00390625 C30.15636123 81.13598559 30.15636123 81.13598559 27.97265625 77.00390625 C24.70733973 75.62903614 23.03532624 76.14550102 19.59765625 77.00390625 C16.98725065 78.22287505 14.58549552 79.70331377 12.16015625 81.25390625 C11.46784912 81.69283203 10.77554199 82.13175781 10.06225586 82.58398438 C-0.82889044 89.69071989 -10.45479888 98.36906407 -18.86328125 108.2734375 C-19.37117188 108.84449219 -19.8790625 109.41554688 -20.40234375 110.00390625 C-20.73234375 110.00390625 -21.06234375 110.00390625 -21.40234375 110.00390625 C-22.61652259 95.50432784 -21.82889246 86.25169729 -12.40234375 75.00390625 C-11.62503906 73.99714844 -10.84773437 72.99039063 -10.046875 71.953125 C-5.10439609 65.66656404 0.04381853 59.65120192 6.4765625 54.859375 C11.94814821 51.11142022 11.94814821 51.11142022 15.40625 45.72265625 C15.57723705 43.3044665 15.57723705 43.3044665 14.59765625 40.00390625 C10.80329549 37.47433241 9.1015624 37.44033092 4.59765625 38.00390625 C1.97315301 39.50990085 -0.13798165 41.44154253 -2.33984375 43.50390625 C-2.94812012 44.04982422 -3.55639648 44.59574219 -4.18310547 45.15820312 C-8.74397226 49.28522247 -13.14492095 53.56488722 -17.40234375 58.00390625 C-18.73428473 59.33863048 -20.06746512 60.67212 -21.40234375 62.00390625 C-21.41168945 60.92906982 -21.42103516 59.8542334 -21.43066406 58.74682617 C-21.47052789 54.76007597 -21.53627548 50.77410045 -21.60986328 46.7878418 C-21.63809406 45.06235707 -21.65929815 43.33674251 -21.67333984 41.61108398 C-21.69474117 39.13067051 -21.74137292 36.65182135 -21.79296875 34.171875 C-21.79419739 33.3999028 -21.79542603 32.6279306 -21.79669189 31.83256531 C-21.90243231 27.50514739 -21.90243231 27.50514739 -24.24902344 24.0168457 C-27.16853145 22.6434853 -29.21565021 22.59709431 -32.40234375 23.00390625 C-34.21380927 23.95888622 -34.21380927 23.95888622 -35.40234375 26.00390625 C-35.73343898 28.79531387 -35.89092053 31.37607313 -35.9140625 34.171875 C-35.9409893 35.36409416 -35.9409893 35.36409416 -35.96846008 36.58039856 C-36.02261345 39.11734726 -36.05647403 41.65410732 -36.08984375 44.19140625 C-36.12301249 45.91213566 -36.15750174 47.63284015 -36.19335938 49.35351562 C-36.27834248 53.57017647 -36.34512917 57.78678089 -36.40234375 62.00390625 C-38.92740084 59.48595236 -41.44101862 56.96360487 -43.91015625 54.390625 C-54.08854195 42.89931313 -54.08854195 42.89931313 -67.46484375 37.37890625 C-70.50949049 37.74807232 -70.50949049 37.74807232 -72.40234375 40.00390625 C-73.24169278 45.16496122 -73.24169278 45.16496122 -71.14941406 49.69775391 C-69.34825329 51.35677299 -67.481638 52.84096647 -65.52734375 54.31640625 C-64.13663882 55.44562925 -62.74993052 56.57979147 -61.3671875 57.71875 C-60.68640137 58.2741748 -60.00561523 58.82959961 -59.30419922 59.40185547 C-50.00991855 67.23100434 -41.85367135 78.10125105 -36.40234375 89.00390625 C-36.31833846 90.59838089 -36.29506908 92.1963117 -36.3046875 93.79296875 C-36.30952148 95.20449219 -36.30952148 95.20449219 -36.31445312 96.64453125 C-36.32702148 98.12179688 -36.32702148 98.12179688 -36.33984375 99.62890625 C-36.34435547 100.62148438 -36.34886719 101.6140625 -36.35351562 102.63671875 C-36.3653223 105.09250785 -36.38178975 107.54817729 -36.40234375 110.00390625 C-39.43167137 107.67562236 -42.02727574 105.42960323 -44.40234375 102.44140625 C-51.97887277 93.68053757 -61.09014438 86.90800002 -70.83984375 80.75390625 C-71.59692627 80.26365967 -72.35400879 79.77341309 -73.1340332 79.26831055 C-76.65130705 77.12378356 -78.61792954 75.98593571 -82.8125 76.08203125 C-85.52247578 76.83801406 -85.52247578 76.83801406 -87.40234375 79.00390625 C-88.09650036 83.08948351 -88.09650036 83.08948351 -87.40234375 87.00390625 C-85.06580648 89.52208795 -82.24314129 91.06065141 -79.27734375 92.75390625 C-77.61527983 93.7818026 -75.95777115 94.81709777 -74.3046875 95.859375 C-73.47565918 96.37935059 -72.64663086 96.89932617 -71.79248047 97.43505859 C-58.25301674 106.32214684 -48.241301 118.58517841 -39.40234375 132.00390625 C-38.82226562 132.88304687 -38.2421875 133.7621875 -37.64453125 134.66796875 C-37.23460937 135.43882812 -36.8246875 136.2096875 -36.40234375 137.00390625 C-36.73234375 137.66390625 -37.06234375 138.32390625 -37.40234375 139.00390625 C-38.39492188 138.60558594 -39.3875 138.20726562 -40.41015625 137.796875 C-66.46564925 127.53503919 -92.17098776 127.2032769 -118.20703125 137.6015625 C-121.46870134 138.92279931 -121.46870134 138.92279931 -124.40234375 141.00390625 C-126.4375 140.8515625 -126.4375 140.8515625 -128.40234375 140.00390625 C-129.7109375 138.4375 -129.7109375 138.4375 -130.83984375 136.44140625 C-132.48385807 133.5934676 -134.18181718 130.85008806 -136.02734375 128.12890625 C-141.65601985 118.9845271 -143.07114278 108.52343522 -140.74609375 98.046875 C-137.523741 88.11591718 -131.33026648 81.37786122 -123.3203125 74.92578125 C-119.75527742 71.3534854 -119.15934815 67.48860146 -119.09375 62.58203125 C-119.06861328 61.5559375 -119.04347656 60.52984375 -119.01757812 59.47265625 C-118.9826788 57.34250458 -118.95137458 55.21229069 -118.92382812 53.08203125 C-118.62144813 41.28183633 -115.4842422 32.80242624 -107.40234375 24.00390625 C-99.95428504 18.03049905 -93.02237514 15.20363703 -83.52734375 14.62890625 C-74.14836086 13.91554221 -68.91169771 10.8820524 -62.5703125 4.09765625 C-44.9629272 -12.9069537 -19.71433532 -13.1334349 0 0 Z " fill="#8ADE9D" transform="translate(383.40234375,155.99609375)"/>
<path d="M0 0 C1.68117668 0.00022659 1.68117668 0.00022659 3.39631653 0.00045776 C4.59544174 0.01078033 5.79456696 0.02110291 7.0300293 0.03173828 C8.88388496 0.03598312 8.88388496 0.03598312 10.77519226 0.04031372 C14.04839802 0.0495986 17.32140449 0.06754445 20.59454346 0.08972168 C23.93955653 0.11024261 27.2845783 0.1191581 30.62963867 0.12939453 C37.18376285 0.15143287 43.7377168 0.18595175 50.29174805 0.22705078 C50.29174805 6.82705078 50.29174805 13.42705078 50.29174805 20.22705078 C48.87434326 20.23639648 47.45693848 20.24574219 45.99658203 20.25537109 C40.7202248 20.29534843 35.44444586 20.3611297 30.16845703 20.43457031 C27.88825936 20.46273489 25.60796488 20.48397179 23.32763672 20.49804688 C20.04303586 20.51953827 16.7595935 20.5662225 13.4753418 20.61767578 C11.95462318 20.61951874 11.95462318 20.61951874 10.40318298 20.62139893 C4.18735806 20.74901132 0.2400648 21.33555226 -4.70825195 25.22705078 C-8.67608823 30.83859692 -9.28551635 34.99981978 -9.21618652 41.77360535 C-9.22242649 42.7159811 -9.22866645 43.65835685 -9.2350955 44.62928945 C-9.25100984 47.77696094 -9.23842719 50.9238564 -9.22583008 54.0715332 C-9.23125176 56.33206127 -9.23837468 58.5925858 -9.24707031 60.85310364 C-9.26529777 66.98508176 -9.25823915 73.11679054 -9.24555397 79.24877334 C-9.23542715 85.66376582 -9.24481843 92.07873525 -9.25109863 98.49372864 C-9.25884035 109.9529422 -9.24641367 121.41200649 -9.22606128 132.87119482 C-9.20817819 143.26192813 -9.21130615 153.65248277 -9.22973633 164.04321289 C-9.25113785 176.11478143 -9.25911391 188.18621504 -9.24728727 200.25780946 C-9.24104475 206.64625835 -9.24023798 213.03458411 -9.25343323 219.42302513 C-9.2649658 225.42558904 -9.2570132 231.42781448 -9.2338562 237.43034172 C-9.22855598 239.63625272 -9.23010519 241.84219208 -9.23890686 244.04809189 C-9.24979342 247.05293149 -9.23618197 250.05667774 -9.21618652 253.06144714 C-9.22510941 253.93993905 -9.2340323 254.81843095 -9.24322557 255.72354382 C-9.19265571 260.5722979 -9.19265571 260.5722979 -6.86400604 264.73740101 C-4.68897233 266.38856503 -4.68897233 266.38856503 -1.70825195 267.22705078 C-1.70825195 273.82705078 -1.70825195 280.42705078 -1.70825195 287.22705078 C-3.35825195 287.88705078 -5.00825195 288.54705078 -6.70825195 289.22705078 C-9.85372324 292.37252207 -9.01158002 296.28134336 -9.01464844 300.50683594 C-9.02297195 301.4696347 -9.03129547 302.43243347 -9.03987122 303.42440796 C-9.06405304 306.62168374 -9.07275517 309.81875562 -9.0793457 313.01611328 C-9.08830881 315.23611514 -9.0974306 317.45611636 -9.10670471 319.67611694 C-9.12322159 324.33845489 -9.13089921 329.00072082 -9.13378906 333.66308594 C-9.13916259 339.62850845 -9.176789 345.59325048 -9.22253323 351.55848122 C-9.25233099 356.14824874 -9.25951329 360.73785336 -9.26051521 365.3277092 C-9.26471537 367.52608721 -9.27714136 369.72446581 -9.29803276 371.92274857 C-9.32499033 375.00596681 -9.320107 378.08762118 -9.30761719 381.17089844 C-9.32245148 382.07406799 -9.33728577 382.97723755 -9.35256958 383.90777588 C-9.28043839 390.18382192 -7.90574177 394.48126011 -3.70825195 399.22705078 C2.73869891 404.8449181 10.72229952 403.7222519 18.81469727 403.59838867 C20.39715604 403.58910635 21.97962711 403.58175142 23.56210327 403.57617188 C26.96107695 403.56105379 30.35968791 403.53427919 33.75851059 403.49894905 C39.13835503 403.44505063 44.51789613 403.42924003 49.89797974 403.42076111 C65.19351671 403.39169756 80.48847602 403.32663582 95.78344727 403.18969727 C104.23787565 403.11432652 112.69153365 403.07840122 121.1463052 403.08572572 C126.48984618 403.08818489 131.83009061 403.04257239 137.17297721 402.96114838 C140.50397005 402.92211325 143.83368795 402.9294254 147.16479874 402.94963837 C148.70274806 402.9498435 150.24083786 402.93135956 151.77828979 402.89224815 C163.38902171 402.61215957 163.38902171 402.61215957 168.0864296 406.5989666 C170.46170044 409.51780701 170.46170044 409.51780701 172.38344002 412.41403866 C174.95161366 416.19975013 178.15663517 418.84892205 181.6394043 421.76611328 C182.18467773 422.24822266 182.72995117 422.73033203 183.29174805 423.22705078 C183.29174805 423.55705078 183.29174805 423.88705078 183.29174805 424.22705078 C159.19581808 424.29717023 135.09990343 424.35005339 111.00389194 424.3824873 C99.81538543 424.39794803 88.62694236 424.41902243 77.43847656 424.45336914 C67.68520866 424.48329573 57.93198671 424.50263156 48.17867416 424.50931627 C43.01564497 424.51322298 37.85274722 424.52238789 32.68976021 424.54424095 C27.82658657 424.56465754 22.96359809 424.57087411 18.10038567 424.56637383 C16.31905485 424.56719671 14.53771761 424.57313145 12.75642395 424.58466721 C-0.74235146 424.66777157 -10.7231249 423.57247518 -21.27075195 414.22705078 C-29.70128861 405.26171404 -30.43864785 394.42730797 -30.33644104 382.68403625 C-30.34149542 381.14153492 -30.34873109 379.59903948 -30.35793918 378.05655736 C-30.37676132 373.84805765 -30.36468506 369.6401439 -30.34721625 365.43165958 C-30.33379161 360.88152326 -30.34929738 356.33146982 -30.36103821 351.78134155 C-30.37937992 342.88041802 -30.37092628 333.97971457 -30.35294998 325.07879797 C-30.33890484 317.84421023 -30.3350353 310.60968209 -30.33839226 303.37508202 C-30.3388697 302.34409666 -30.33934714 301.3131113 -30.33983905 300.25088396 C-30.34086541 298.15627294 -30.34192077 296.06166193 -30.34300482 293.96705093 C-30.35156453 275.46244638 -30.33491912 256.95794788 -30.30517578 238.45336914 C-30.27632761 220.50540718 -30.26926174 202.55759793 -30.28466797 184.60961914 C-30.30143345 165.05142108 -30.30546176 145.49329544 -30.28795761 125.93509549 C-30.28611326 123.84925442 -30.28427854 121.76341334 -30.28245354 119.67757225 C-30.28154145 118.65136538 -30.28062936 117.62515851 -30.27968963 116.56785447 C-30.27408737 109.34186299 -30.27738841 102.11590693 -30.28399849 94.88991737 C-30.29173409 86.08424231 -30.28497048 77.27871749 -30.25982345 68.47307269 C-30.24733518 63.98178335 -30.24117384 59.49072786 -30.25236511 54.9994297 C-30.26242183 50.88577327 -30.25391764 46.77258273 -30.23078393 42.6589829 C-30.22563406 41.17333102 -30.2271695 39.68763724 -30.23617858 38.20200375 C-30.28179619 29.99489097 -29.95554234 23.38273182 -25.70825195 16.22705078 C-25.02182617 15.03015625 -25.02182617 15.03015625 -24.3215332 13.80908203 C-18.45832891 5.83301133 -10.13146381 -0.04574024 0 0 Z " fill="#84A3E3" transform="translate(44.708251953125,72.77294921875)"/>
<path d="M0 0 C20.58336838 -0.02332721 41.16673459 -0.0409783 61.75011349 -0.05181217 C71.30663939 -0.05697551 80.86315709 -0.06401892 90.41967773 -0.07543945 C98.74602007 -0.08538514 107.07235648 -0.09185315 115.39870459 -0.09408849 C119.81024857 -0.0953958 124.22177557 -0.09848288 128.63331413 -0.10573006 C132.78070387 -0.11248846 136.92806953 -0.11461733 141.07546425 -0.11310768 C142.6021373 -0.11338409 144.12881112 -0.11539028 145.65547943 -0.11920547 C147.73083459 -0.12413994 149.80609742 -0.12299923 151.88145447 -0.12025452 C153.62779128 -0.12163721 153.62779128 -0.12163721 155.40940762 -0.12304783 C158 0 158 0 159 1 C159.11369238 3.69479602 159.16419384 6.36291431 159.16796875 9.05859375 C159.17129715 9.87691177 159.17462555 10.6952298 159.17805481 11.53834534 C159.18313211 13.2793827 159.18546289 15.02042985 159.18530273 16.76147461 C159.18746526 19.39518985 159.20554477 22.0284697 159.22460938 24.66210938 C159.28159983 41.18766791 159.28159983 41.18766791 157 49 C156.51853516 50.66482422 156.51853516 50.66482422 156.02734375 52.36328125 C149.59371664 69.77327576 138.5712338 81.67210954 122 90 C110.24186517 95.05232356 99.18184621 95.36158445 86.57250977 95.51489258 C84.5816238 95.54638116 82.590921 95.5939756 80.60083008 95.65844727 C66.90399613 96.09484086 57.33756835 94.94149313 46 87 C44.80515991 86.18776978 44.80515991 86.18776978 43.58618164 85.35913086 C41.73864288 84.03317082 39.99040537 82.649865 38.25 81.1875 C37.67507813 80.72408203 37.10015625 80.26066406 36.5078125 79.78320312 C34.98555709 78.54592809 33.49100141 77.27476502 32 76 C31.35546875 75.48050781 30.7109375 74.96101563 30.046875 74.42578125 C29 73 29 73 29.08984375 70.984375 C30.20069299 68.5624376 31.38096078 67.74843098 33.5625 66.25 C36.28505527 64.06698759 36.28505527 64.06698759 37.53125 60.90625 C37.62497379 58.47351055 37.62497379 58.47351055 37 55 C35.01040592 52.58660109 35.01040592 52.58660109 31.125 52.625 C27.96225699 52.68757225 27.30082347 52.72571978 24.875 54.9375 C24.25625 55.618125 23.6375 56.29875 23 57 C21.01246026 57.40099486 19.01099442 57.74113215 17 58 C6.59574984 40.09623957 -0.06991129 20.89030958 0 0 Z " fill="#B4E8F0" transform="translate(338,402)"/>
<path d="M0 0 C2.95306523 2.09444291 5.4941031 4.39291486 8 7 C8.7425 7.763125 9.485 8.52625 10.25 9.3125 C12.83322889 13.2796015 14.34920334 17.57945665 16 22 C17.96232777 27.2065782 19.88693135 31.11049899 24.78955078 34.08618164 C27.45873939 35.18964673 29.54471005 35.27101487 32.4296875 35.30859375 C33.47253906 35.33373047 34.51539063 35.35886719 35.58984375 35.38476562 C37.77207801 35.41979554 39.95437588 35.45107299 42.13671875 35.47851562 C52.58776437 35.74269125 52.58776437 35.74269125 57 39 C60.73786823 43.60161073 61.5966845 47.24664485 61.53125 53.03125 C61.5350769 53.78539185 61.53890381 54.53953369 61.54284668 55.31652832 C61.54555594 56.9032526 61.53826395 58.49002229 61.52148438 60.07666016 C61.50005732 62.49353413 61.52131619 64.90743628 61.546875 67.32421875 C61.54423154 68.87240234 61.53910619 70.42058409 61.53125 71.96875 C61.53934692 72.68454224 61.54744385 73.40033447 61.55578613 74.13781738 C61.46166094 79.2208783 60.27691455 82.13902527 57 86 C53.39786802 88.57426911 50.92999323 89.37512499 46.52294922 89.38476562 C45.45188934 89.39487671 44.38082947 89.40498779 43.27731323 89.41540527 C42.13134674 89.41238403 40.98538025 89.40936279 39.8046875 89.40625 C38.62029083 89.41708618 37.43589417 89.42792236 36.21560669 89.43908691 C31.15142771 89.48498493 26.08729915 89.4964656 21.02294922 89.51123047 C17.32500724 89.52687761 13.62749988 89.55986354 9.9296875 89.59375 C8.20466507 89.58921814 8.20466507 89.58921814 6.4447937 89.58459473 C4.84766037 89.59976135 4.84766037 89.59976135 3.21826172 89.61523438 C2.28070038 89.61728882 1.34313904 89.61934326 0.37716675 89.62145996 C-2.45446319 90.07236872 -3.33023526 90.70128342 -5 93 C-5.7269226 96.10839021 -5.7269226 96.10839021 -6 99 C-6.33 98.34 -6.66 97.68 -7 97 C-16.9 97.495 -16.9 97.495 -27 98 C-27.66 96.02 -28.32 94.04 -29 92 C-32.32177773 89.78548151 -33.33712674 89.75322965 -37.20239258 89.76049805 C-38.26392044 89.75676682 -39.3254483 89.75303558 -40.41914368 89.74919128 C-41.56602158 89.75332535 -42.71289948 89.75745941 -43.89453125 89.76171875 C-46.31836497 89.7462985 -48.7421932 89.72999483 -51.16601562 89.71289062 C-54.99108972 89.69643394 -58.81576255 89.68750603 -62.64086914 89.69458008 C-66.33005289 89.69719905 -70.01801105 89.66908147 -73.70703125 89.63671875 C-74.84783646 89.64692551 -75.98864166 89.65713226 -77.16401672 89.66764832 C-86.02544949 89.55853184 -86.02544949 89.55853184 -89.64331055 86.71020508 C-93.85785588 81.86345612 -94.31646359 78.51740242 -94.3359375 72.1640625 C-94.3425943 71.40709076 -94.3492511 70.65011902 -94.35610962 69.87020874 C-94.36621599 68.27157005 -94.37092726 66.67288935 -94.37060547 65.07421875 C-94.37497325 62.63991048 -94.41129544 60.20742457 -94.44921875 57.7734375 C-94.45508865 56.216152 -94.45905688 54.65885793 -94.4609375 53.1015625 C-94.47530853 52.37949615 -94.48967957 51.65742981 -94.50448608 50.91348267 C-94.45864829 45.79307809 -93.30826099 42.88404128 -90 39 C-86.47597291 36.29099569 -83.94684504 35.63234588 -79.54296875 35.62890625 C-77.99706055 35.60280273 -77.99706055 35.60280273 -76.41992188 35.57617188 C-74.27670555 35.56710691 -72.13346947 35.56185612 -69.99023438 35.56054688 C-63.20326396 35.43791626 -58.78931483 34.62338236 -53 31 C-50.45055938 28.01100065 -49.66629653 24.90316467 -48.625 21.1875 C-46.09312446 12.39119014 -40.80361985 4.58650665 -32.9140625 -0.2890625 C-22.28666175 -5.78054467 -10.63737239 -5.58829702 0 0 Z " fill="#FD6D7F" transform="translate(204,19)"/>
<path d="M0 0 C0.99 0.495 0.99 0.495 2 1 C1.5359375 2.299375 1.5359375 2.299375 1.0625 3.625 C-1.17267348 10.72496281 -1.12154977 17.49832066 -1.0625 24.875 C-1.05798828 25.94492188 -1.05347656 27.01484375 -1.04882812 28.1171875 C-1.03709749 30.74484986 -1.02068228 33.37239538 -1 36 C-1.62648438 35.97679687 -2.25296875 35.95359375 -2.8984375 35.9296875 C-3.71570313 35.91164062 -4.53296875 35.89359375 -5.375 35.875 C-6.18710937 35.85179687 -6.99921875 35.82859375 -7.8359375 35.8046875 C-10.21342243 35.78629949 -10.21342243 35.78629949 -12 38 C-12.83934903 43.16105497 -12.83934903 43.16105497 -10.74707031 47.69384766 C-8.94590954 49.35286674 -7.07929425 50.83706022 -5.125 52.3125 C-3.73429507 53.441723 -2.34758677 54.57588522 -0.96484375 55.71484375 C-0.28405762 56.27026855 0.39672852 56.82569336 1.09814453 57.39794922 C10.3924252 65.22709809 18.5486724 76.0973448 24 87 C24.08400529 88.59447464 24.10727467 90.19240545 24.09765625 91.7890625 C24.09282227 93.20058594 24.09282227 93.20058594 24.08789062 94.640625 C24.07532227 96.11789063 24.07532227 96.11789063 24.0625 97.625 C24.05798828 98.61757813 24.05347656 99.61015625 24.04882812 100.6328125 C24.03702145 103.0886016 24.020554 105.54427104 24 108 C20.97067238 105.67171611 18.37506801 103.42569698 16 100.4375 C8.42347098 91.67663132 -0.68780063 84.90409377 -10.4375 78.75 C-11.19458252 78.25975342 -11.95166504 77.76950684 -12.73168945 77.2644043 C-16.2489633 75.11987731 -18.21558579 73.98202946 -22.41015625 74.078125 C-25.12013203 74.83410781 -25.12013203 74.83410781 -27 77 C-27.69415661 81.08557726 -27.69415661 81.08557726 -27 85 C-24.66346273 87.5181817 -21.84079754 89.05674516 -18.875 90.75 C-17.21293608 91.77789635 -15.5554274 92.81319152 -13.90234375 93.85546875 C-13.07331543 94.37544434 -12.24428711 94.89541992 -11.39013672 95.43115234 C2.14932701 104.31824059 12.16104275 116.58127216 21 130 C21.58007812 130.87914062 22.16015625 131.75828125 22.7578125 132.6640625 C23.16773438 133.43492187 23.57765625 134.20578125 24 135 C23.67 135.66 23.34 136.32 23 137 C22.00742187 136.60167969 21.01484375 136.20335937 19.9921875 135.79296875 C-6.0633055 125.53113294 -31.76864401 125.19937065 -57.8046875 135.59765625 C-61.06635759 136.91889306 -61.06635759 136.91889306 -64 139 C-66.03515625 138.84765625 -66.03515625 138.84765625 -68 138 C-69.30859375 136.43359375 -69.30859375 136.43359375 -70.4375 134.4375 C-72.08151432 131.58956135 -73.77947343 128.84618181 -75.625 126.125 C-81.2536761 116.98062085 -82.66879903 106.51952897 -80.34375 96.04296875 C-77.12139725 86.11201093 -70.92792273 79.37395497 -62.91796875 72.921875 C-59.35293367 69.34957915 -58.7570044 65.48469521 -58.69140625 60.578125 C-58.66626953 59.55203125 -58.64113281 58.5259375 -58.61523438 57.46875 C-58.58033505 55.33859833 -58.54903083 53.20838444 -58.52148438 51.078125 C-58.21910438 39.27793008 -55.08189845 30.79851999 -47 22 C-39.55194129 16.0265928 -32.62003139 13.19973078 -23.125 12.625 C-12.68453969 11.83090015 -6.8703902 7.71280861 0 0 Z " fill="#72D88A" transform="translate(323,158)"/>
<path d="M0 0 C4.40906763 3.25267589 8.21776887 7.050509 12 11 C12.79019531 11.81984375 13.58039063 12.6396875 14.39453125 13.484375 C34.82896319 36.53126496 39.25825382 65.44428513 39 95 C33.06 95 27.12 95 21 95 C20.7525 92.73125 20.505 90.4625 20.25 88.125 C18.65845003 75.67977702 13.96328466 65.13138782 4.3515625 56.66796875 C-1.07078624 52.57462706 -6.61403093 49.32426262 -13 47 C-13.89074219 46.64550781 -14.78148437 46.29101562 -15.69921875 45.92578125 C-19.86301348 44.7579477 -23.69301619 44.57593765 -28 44.5625 C-29.24716797 44.55778687 -29.24716797 44.55778687 -30.51953125 44.55297852 C-38.43559343 44.70421665 -44.75703665 46.78909328 -52 50 C-53.485 50.495 -53.485 50.495 -55 51 C-55.32871094 50.27296875 -55.65742188 49.5459375 -55.99609375 48.796875 C-60.98829991 38.2442441 -67.40080373 28.93771963 -76 21 C-73.56558019 15.4264599 -69.14551844 11.34773886 -65 7 C-64.40316406 6.36449219 -63.80632812 5.72898437 -63.19140625 5.07421875 C-45.27104278 -12.2873806 -20.43336462 -12.98668838 0 0 Z " fill="#FDF6E4" transform="translate(448,292)"/>
<path d="M0 0 C0.78632813 0.24492187 1.57265625 0.48984375 2.3828125 0.7421875 C16.16546061 5.62444216 25.65515689 15.31908668 32.375 28.0625 C35.7687426 35.3018694 37.09360991 41.29550935 37.0390625 49.28125 C37.03342285 50.35439453 37.0277832 51.42753906 37.02197266 52.53320312 C37.01109619 53.75426758 37.01109619 53.75426758 37 55 C35.92516357 55.01458252 34.85032715 55.02916504 33.74291992 55.04418945 C29.75625283 55.1021489 25.77015199 55.17938129 21.78393555 55.26245117 C20.05844307 55.29571172 18.33284151 55.32374019 16.60717773 55.34643555 C14.12696834 55.37996153 11.6477597 55.43227406 9.16796875 55.48828125 C8.01001045 55.49786613 8.01001045 55.49786613 6.82865906 55.50764465 C2.71702969 55.60247973 2.71702969 55.60247973 -0.94799805 57.28198242 C-2.27742208 59.26031389 -2.27742208 59.26031389 -3 63 C-9.6 63 -16.2 63 -23 63 C-23.99 61.02 -24.98 59.04 -26 57 C-29.38052274 55.30973863 -33.22260142 55.75555041 -36.9453125 55.68359375 C-37.8303244 55.66281265 -38.7153363 55.64203156 -39.62716675 55.62062073 C-42.45969741 55.55513402 -45.29232225 55.49624438 -48.125 55.4375 C-50.04297857 55.39431394 -51.96094754 55.35069963 -53.87890625 55.30664062 C-58.58584051 55.19945353 -63.29286967 55.0981836 -68 55 C-68.27044315 38.50797583 -64.74305958 25.35784821 -53.19921875 13.06640625 C-38.83215092 -0.43302338 -19.13446951 -6.09779798 0 0 Z " fill="#FB9EA9" transform="translate(320,332)"/>
<path d="M0 0 C3.50261559 2.84164652 6.78462444 5.8383035 10 9 C10.69996094 9.68707031 11.39992188 10.37414062 12.12109375 11.08203125 C25.38298762 25.01606789 33.35816677 44.6252396 33.1875 63.8125 C33.125625 66.184375 33.06375 68.55625 33 71 C28.05 71 23.1 71 18 71 C17.9175 68.81375 17.835 66.6275 17.75 64.375 C16.64687346 45.3591004 8.56229831 29.0388089 -5.0625 15.875 C-19.7017675 3.47054349 -37.16249898 -0.98711796 -56 0 C-57.24523437 0.0309375 -57.24523437 0.0309375 -58.515625 0.0625 C-74.54864776 1.01260505 -89.18901149 10.72700343 -100 22 C-111.86658734 36.480475 -116.30577221 52.60296364 -117 71 C-121.95 71 -126.9 71 -132 71 C-132.92594623 47.15688451 -125.44042647 27.50818438 -109.765625 9.421875 C-81.08470522 -21.1336147 -33.49930571 -24.49728964 0 0 Z " fill="#FA6C7D" transform="translate(354,316)"/>
<path d="M0 0 C7.48897498 -0.09939933 14.97755991 -0.17172015 22.46704102 -0.21972656 C25.01105444 -0.23975435 27.55502235 -0.26698464 30.09887695 -0.30175781 C33.77045983 -0.3506643 37.44143033 -0.3730582 41.11328125 -0.390625 C42.23769119 -0.41127014 43.36210114 -0.43191528 44.52058411 -0.45318604 C54.86094393 -0.45607792 63.67207677 1.79248945 71.28125 9.07421875 C77.64999574 16.21010887 80.33410334 23.44037031 80.1953125 33.0234375 C80.1924826 33.76961334 80.18965271 34.51578918 80.18673706 35.28457642 C80.17561687 37.64821988 80.15052821 40.01147268 80.125 42.375 C80.11495962 43.98567158 80.10583562 45.59634915 80.09765625 47.20703125 C80.0774129 51.13828937 80.03825037 55.06871171 80 59 C70.1 59.495 70.1 59.495 60 60 C59.97421875 58.05996094 59.9484375 56.11992187 59.921875 54.12109375 C59.86558445 51.55987364 59.80823733 48.99867659 59.75 46.4375 C59.73582031 45.16068359 59.72164063 43.88386719 59.70703125 42.56835938 C59.53979289 33.03039389 59.53979289 33.03039389 55 25 C49.01408763 20.65854184 44.08369135 20.39943221 36.81640625 20.390625 C35.76090073 20.37408875 34.7053952 20.35755249 33.61790466 20.34051514 C30.26604318 20.29215763 26.91463504 20.27069071 23.5625 20.25 C21.28187839 20.22183019 19.00127778 20.19190135 16.72070312 20.16015625 C11.14717274 20.08640145 5.57389223 20.03675163 0 20 C0 13.4 0 6.8 0 0 Z " fill="#96AFE5" transform="translate(280,73)"/>
<path d="M0 0 C0.20753906 0.78761719 0.41507812 1.57523437 0.62890625 2.38671875 C6.71775758 23.91424751 20.03658823 40.31963768 39 52 C38.525625 52.5775 38.05125 53.155 37.5625 53.75 C35.71876366 56.12150978 35.71876366 56.12150978 35 60 C28.4 60 21.8 60 15 60 C14.01 58.02 13.02 56.04 12 54 C8.61947726 52.30973863 4.77739858 52.75555041 1.0546875 52.68359375 C0.1696756 52.66281265 -0.7153363 52.64203156 -1.62716675 52.62062073 C-4.45969741 52.55513402 -7.29232225 52.49624438 -10.125 52.4375 C-12.04297857 52.39431394 -13.96094754 52.35069963 -15.87890625 52.30664062 C-20.58584051 52.19945353 -25.29286967 52.0981836 -30 52 C-30.27076441 35.48838509 -26.72261908 22.41752164 -15.2265625 10.078125 C-4.42857143 0 -4.42857143 0 0 0 Z " fill="#FB8996" transform="translate(282,335)"/>
<path d="M0 0 C0.9238298 -0.01134979 1.84765961 -0.02269958 2.79948425 -0.03439331 C3.80582916 -0.03146271 4.81217407 -0.0285321 5.84901428 -0.0255127 C6.91445969 -0.03398224 7.97990509 -0.04245178 9.07763672 -0.05117798 C12.6031942 -0.07459677 16.12831651 -0.07556896 19.65394592 -0.07434082 C22.10247982 -0.08143929 24.55101204 -0.08913783 26.99954224 -0.09741211 C32.13333255 -0.11086807 37.26696906 -0.11242055 42.40077209 -0.10656738 C48.98298693 -0.10066961 55.56446462 -0.13126199 62.14653683 -0.17168427 C67.20371484 -0.19751989 72.26071438 -0.20044241 77.3179493 -0.1967926 C79.74487219 -0.19848764 82.17180299 -0.20816677 84.59866142 -0.22593689 C87.99120964 -0.24804421 91.38225295 -0.23846509 94.77479553 -0.2208252 C95.77911621 -0.23408844 96.78343689 -0.24735168 97.81819153 -0.26101685 C102.4788928 -0.20464076 104.68681334 -0.10983074 108.53921509 2.70629883 C110.37660217 5.39440918 110.37660217 5.39440918 110.37660217 9.01940918 C109.39039397 12.34786188 109.0351752 13.36867007 106.37660217 15.39440918 C104.26948643 15.77751923 104.26948643 15.77751923 101.790802 15.78881836 C100.37970909 15.80584305 100.37970909 15.80584305 98.94010925 15.82321167 C97.90989655 15.82028107 96.87968384 15.81735046 95.81825256 15.81433105 C94.18863335 15.82703537 94.18863335 15.82703537 92.52609253 15.83999634 C88.92536295 15.86344611 85.32505867 15.86438657 81.72425842 15.86315918 C79.2270592 15.87025588 76.72986161 15.87795414 74.23266602 15.88623047 C68.9945591 15.8996936 63.75656224 15.90141632 58.51844788 15.89538574 C52.46464783 15.8887443 46.41145699 15.91161134 40.35778052 15.94869947 C34.53303006 15.98308965 28.70851957 15.98973388 22.88368034 15.98561096 C20.40569176 15.98730752 17.92769554 15.99700113 15.44976997 16.01475525 C11.98746727 16.03683145 8.52664293 16.02729926 5.06434631 16.00964355 C4.03615784 16.0229068 3.00796936 16.03617004 1.94862366 16.04983521 C-4.96175376 15.96774398 -4.96175376 15.96774398 -8.29138184 13.08251953 C-10.12166577 9.38886628 -9.78214041 7.3051654 -8.62339783 3.39440918 C-5.80205079 0.71186073 -3.85246839 0.0179336 0 0 Z " fill="#040102" transform="translate(136.62339782714844,77.6055908203125)"/>
<path d="M0 0 C5.19188568 4.42724862 9.24291147 8.92604397 12.33984375 15.01171875 C12.77296875 15.79546875 13.20609375 16.57921875 13.65234375 17.38671875 C14.33984375 20.01171875 14.33984375 20.01171875 14.33984375 30.01171875 C-2.82015625 30.01171875 -19.98015625 30.01171875 -37.66015625 30.01171875 C-38.32015625 22.42171875 -38.98015625 14.83171875 -39.66015625 7.01171875 C-39.99015625 4.70171875 -40.32015625 2.39171875 -40.66015625 0.01171875 C-39.26938324 -0.80941302 -37.87226732 -1.6198062 -36.47265625 -2.42578125 C-35.69535156 -2.87824219 -34.91804688 -3.33070313 -34.1171875 -3.796875 C-23.3479354 -9.01884939 -9.35716164 -6.99382566 0 0 Z " fill="#FECD70" transform="translate(439.66015625,356.98828125)"/>
<path d="M0 0 C-0.01160156 0.83144531 -0.02320313 1.66289062 -0.03515625 2.51953125 C-0.04417969 3.60621094 -0.05320312 4.69289063 -0.0625 5.8125 C-0.07410156 6.89144531 -0.08570313 7.97039062 -0.09765625 9.08203125 C-0.13624766 12.06512169 -0.13624766 12.06512169 1 15 C0.24976563 15.3403125 -0.50046875 15.680625 -1.2734375 16.03125 C-18.75949298 24.3118002 -31.15033813 37.07721122 -37.8125 55.3125 C-40.08723157 61.88640064 -41.15760741 67.88391746 -41.5625 74.8125 C-41.706875 77.184375 -41.85125 79.55625 -42 82 C-46.95 82 -51.9 82 -57 82 C-57.92594623 58.15688451 -50.44042647 38.50818438 -34.765625 20.421875 C-29.30052061 14.59957424 -8.5436628 -4.2718314 0 0 Z " fill="#F95A6D" transform="translate(279,305)"/>
<path d="M0 0 C2 1.625 2 1.625 3 4 C2.9581508 9.80635457 1.2074658 12.5038857 -2.66018677 16.49386597 C-3.31115326 17.13268707 -3.96211975 17.77150818 -4.6328125 18.4296875 C-5.63790359 19.44338913 -5.63790359 19.44338913 -6.66329956 20.47756958 C-8.08001406 21.89835599 -9.50429003 23.31163766 -10.93554688 24.71777344 C-13.11810324 26.86820475 -15.2668071 29.04875818 -17.4140625 31.234375 C-18.79755953 32.613907 -20.18291675 33.9915765 -21.5703125 35.3671875 C-22.20913361 36.01815399 -22.84795471 36.66912048 -23.50613403 37.33981323 C-26.58077518 40.32018982 -28.52980802 41.85854249 -32.70288086 43.11401367 C-36.5185294 42.98206936 -37.53308042 42.47460913 -40.18359375 39.80859375 C-40.88291016 39.11056641 -41.58222656 38.41253906 -42.30273438 37.69335938 C-43.00720703 36.94892578 -43.71167969 36.20449219 -44.4375 35.4375 C-45.53481445 34.36145508 -45.53481445 34.36145508 -46.65429688 33.26367188 C-51.8391565 27.95294264 -51.8391565 27.95294264 -52.5703125 23.62109375 C-51.81769515 20.16214689 -50.94999178 18.96666119 -48 17 C-44.35948119 16.31310966 -42.12390394 16.24344209 -38.9921875 18.3515625 C-37.25078168 19.83916018 -35.60190345 21.3640135 -34 23 C-30.25113444 21.44346929 -27.91044992 19.12681671 -25.0859375 16.24609375 C-24.16039063 15.30958984 -23.23484375 14.37308594 -22.28125 13.40820312 C-21.31214898 12.41831227 -20.34340287 11.42807386 -19.375 10.4375 C-17.46934629 8.49549092 -15.55964369 6.55765812 -13.6484375 4.62109375 C-12.80458496 3.7592749 -11.96073242 2.89745605 -11.09130859 2.00952148 C-7.31735933 -1.61683578 -5.02870558 -1.14689776 0 0 Z " fill="#030303" transform="translate(127,326)"/>
<path d="M0 0 C2 1.625 2 1.625 3 4 C2.9581508 9.80635457 1.2074658 12.5038857 -2.66018677 16.49386597 C-3.31115326 17.13268707 -3.96211975 17.77150818 -4.6328125 18.4296875 C-5.63790359 19.44338913 -5.63790359 19.44338913 -6.66329956 20.47756958 C-8.08001406 21.89835599 -9.50429003 23.31163766 -10.93554688 24.71777344 C-13.11810324 26.86820475 -15.2668071 29.04875818 -17.4140625 31.234375 C-18.79755953 32.613907 -20.18291675 33.9915765 -21.5703125 35.3671875 C-22.20913361 36.01815399 -22.84795471 36.66912048 -23.50613403 37.33981323 C-26.58077518 40.32018982 -28.52980802 41.85854249 -32.70288086 43.11401367 C-36.5185294 42.98206936 -37.53308042 42.47460913 -40.18359375 39.80859375 C-40.88291016 39.11056641 -41.58222656 38.41253906 -42.30273438 37.69335938 C-43.00720703 36.94892578 -43.71167969 36.20449219 -44.4375 35.4375 C-45.53481445 34.36145508 -45.53481445 34.36145508 -46.65429688 33.26367188 C-51.8391565 27.95294264 -51.8391565 27.95294264 -52.5703125 23.62109375 C-51.81769515 20.16214689 -50.94999178 18.96666119 -48 17 C-44.35948119 16.31310966 -42.12390394 16.24344209 -38.9921875 18.3515625 C-37.25078168 19.83916018 -35.60190345 21.3640135 -34 23 C-30.25113444 21.44346929 -27.91044992 19.12681671 -25.0859375 16.24609375 C-24.16039063 15.30958984 -23.23484375 14.37308594 -22.28125 13.40820312 C-21.31214898 12.41831227 -20.34340287 11.42807386 -19.375 10.4375 C-17.46934629 8.49549092 -15.55964369 6.55765812 -13.6484375 4.62109375 C-12.80458496 3.7592749 -11.96073242 2.89745605 -11.09130859 2.00952148 C-7.31735933 -1.61683578 -5.02870558 -1.14689776 0 0 Z " fill="#030303" transform="translate(127,251)"/>
<path d="M0 0 C2 1.625 2 1.625 3 4 C2.9581508 9.80635457 1.2074658 12.5038857 -2.66018677 16.49386597 C-3.31115326 17.13268707 -3.96211975 17.77150818 -4.6328125 18.4296875 C-5.63790359 19.44338913 -5.63790359 19.44338913 -6.66329956 20.47756958 C-8.08001406 21.89835599 -9.50429003 23.31163766 -10.93554688 24.71777344 C-13.11810324 26.86820475 -15.2668071 29.04875818 -17.4140625 31.234375 C-18.79755953 32.613907 -20.18291675 33.9915765 -21.5703125 35.3671875 C-22.20913361 36.01815399 -22.84795471 36.66912048 -23.50613403 37.33981323 C-26.58077518 40.32018982 -28.52980802 41.85854249 -32.70288086 43.11401367 C-36.5185294 42.98206936 -37.53308042 42.47460913 -40.18359375 39.80859375 C-40.88291016 39.11056641 -41.58222656 38.41253906 -42.30273438 37.69335938 C-43.00720703 36.94892578 -43.71167969 36.20449219 -44.4375 35.4375 C-45.53481445 34.36145508 -45.53481445 34.36145508 -46.65429688 33.26367188 C-51.8391565 27.95294264 -51.8391565 27.95294264 -52.5703125 23.62109375 C-51.81769515 20.16214689 -50.94999178 18.96666119 -48 17 C-44.35948119 16.31310966 -42.12390394 16.24344209 -38.9921875 18.3515625 C-37.25078168 19.83916018 -35.60190345 21.3640135 -34 23 C-30.25113444 21.44346929 -27.91044992 19.12681671 -25.0859375 16.24609375 C-24.16039063 15.30958984 -23.23484375 14.37308594 -22.28125 13.40820312 C-21.31214898 12.41831227 -20.34340287 11.42807386 -19.375 10.4375 C-17.46934629 8.49549092 -15.55964369 6.55765812 -13.6484375 4.62109375 C-12.80458496 3.7592749 -11.96073242 2.89745605 -11.09130859 2.00952148 C-7.31735933 -1.61683578 -5.02870558 -1.14689776 0 0 Z " fill="#030303" transform="translate(127,176)"/>
<path d="M0 0 C5.2216357 3.00378631 9.83744292 7.76232875 11.75 13.5 C12.23289318 17.79854094 12.47907776 21.30431248 10.1875 25.0625 C6.76693383 27.07975697 4.65126052 27.1269883 0.75 26.5 C-2.72591408 23.30591679 -3.93235136 19.95973385 -5.25 15.5 C-6.36166864 14.16812207 -6.36166864 14.16812207 -9.1875 14.3125 C-12.35892859 14.16721267 -12.35892859 14.16721267 -14.25 16.5 C-14.559375 17.634375 -14.86875 18.76875 -15.1875 19.9375 C-16.71657284 25.06439127 -16.71657284 25.06439127 -19.25 26.5 C-22.01021919 26.96196137 -24.49271098 26.99401428 -27.25 26.5 C-29.25 25.0625 -29.25 25.0625 -30.25 22.5 C-31.00842485 16.79014435 -30.47656124 12.39547223 -27.25 7.5 C-19.8471683 -0.66209649 -10.83058118 -4.81123665 0 0 Z " fill="#020404" transform="translate(302.25,425.5)"/>
<path d="M0 0 C5.52013044 3.08039076 8.60528998 6.87836995 10.625 12.9375 C11.10789318 17.23604094 11.35407776 20.74181248 9.0625 24.5 C5.64193383 26.51725697 3.52626052 26.5644883 -0.375 25.9375 C-3.85091408 22.74341679 -5.05735136 19.39723385 -6.375 14.9375 C-7.48666864 13.60562207 -7.48666864 13.60562207 -10.3125 13.75 C-13.48392859 13.60471267 -13.48392859 13.60471267 -15.375 15.9375 C-15.684375 17.071875 -15.99375 18.20625 -16.3125 19.375 C-17.82368035 24.44189883 -17.82368035 24.44189883 -20.375 25.9375 C-24.20040234 26.42436939 -26.45977323 26.47724912 -29.8125 24.5 C-32.15978775 20.65044809 -32.09065249 17.32832619 -31.375 12.9375 C-28.84392455 6.82073432 -24.70637583 2.81287381 -19.375 -1.0625 C-12.83332486 -3.24305838 -6.26299777 -2.86388954 0 0 Z " fill="#030304" transform="translate(426.375,426.0625)"/>
<path d="M0 0 C9.84729544 3.44968949 17.52912414 11.23715715 22.203125 20.421875 C22.63625 21.205625 23.069375 21.989375 23.515625 22.796875 C24.60719363 26.96468251 24.35281421 31.13910027 24.203125 35.421875 C19.6941932 36.20226704 17.34612136 36.09827832 13.3515625 33.734375 C6.61194565 28.71884618 0.30815926 23.18715084 -5.796875 17.421875 C-6.44527344 16.81472656 -7.09367187 16.20757812 -7.76171875 15.58203125 C-11.8996459 11.58897682 -15.73124144 7.30667573 -18.796875 2.421875 C-18.796875 1.761875 -18.796875 1.101875 -18.796875 0.421875 C-13.53561594 -2.20875453 -5.60514622 -1.15860564 0 0 Z " fill="#F9E09E" transform="translate(429.796875,351.578125)"/>
<path d="M0 0 C1.73046875 1.125 1.73046875 1.125 3.4375 2.5 C6.05908797 4.57370554 7.76197699 5.39904621 11.125 5.5 C16.02862228 4.86727454 18.55367954 3.44632046 22 0 C28.90410959 -0.54794521 28.90410959 -0.54794521 32 1 C33.69779964 4.39559927 34.02957837 7.40307558 33 11 C29.33357676 15.6756155 23.88220136 19.80451663 18 21 C9.08440654 21.95831862 2.22498899 21.54119918 -5 16 C-6.010625 15.236875 -7.02125 14.47375 -8.0625 13.6875 C-10.85274459 9.81716073 -10.60720105 7.70580815 -10 3 C-7.82182463 -1.10009481 -4.20759072 -0.5610121 0 0 Z " fill="#020303" transform="translate(343,454)"/>
<path d="M0 0 C0.06469482 0.61294922 0.12938965 1.22589844 0.19604492 1.85742188 C1.60409313 14.7848756 3.50573914 26.76804729 8 39 C8.48919922 40.36318359 8.48919922 40.36318359 8.98828125 41.75390625 C9.63347195 43.51212734 10.31069601 45.25860044 11 47 C9.71086513 47.67154933 8.41859796 48.33708859 7.125 49 C6.40570313 49.37125 5.68640625 49.7425 4.9453125 50.125 C3 51 3 51 1 51 C0.67128906 50.27296875 0.34257812 49.5459375 0.00390625 48.796875 C-4.98829991 38.2442441 -11.40080373 28.93771963 -20 21 C-17.64333119 15.60446878 -6.5047471 0 0 0 Z " fill="#FBEDCC" transform="translate(392,292)"/>
<path d="M0 0 C5.72788547 2.24648719 9.06322382 7.60840839 12.70410156 12.33105469 C13.91650363 13.89246775 15.17171506 15.42037484 16.4296875 16.9453125 C23.59719071 26.71454285 22.86131084 36.3209563 22 48 C13.42461553 41.76335675 8.99089618 34.95767062 5.6875 25 C5.18766602 23.58074219 5.18766602 23.58074219 4.67773438 22.1328125 C-0.37804349 7.5608699 -0.37804349 7.5608699 0 0 Z " fill="#8ADD9C" transform="translate(325,218)"/>
<path d="M0 0 C9.24 0 18.48 0 28 0 C25.69 6.27 23.38 12.54 21 19 C16.60568354 17.24227342 15.11778801 16.49097918 12.01171875 13.33984375 C11.30595703 12.62892578 10.60019531 11.91800781 9.87304688 11.18554688 C9.15181641 10.44369141 8.43058594 9.70183594 7.6875 8.9375 C6.94693359 8.19177734 6.20636719 7.44605469 5.44335938 6.67773438 C0 1.15410426 0 1.15410426 0 0 Z " fill="#FDF6E4" transform="translate(190,337)"/>
<path d="M0 0 C4.62 0 9.24 0 14 0 C14 6.27 14 12.54 14 19 C9.71 19 5.42 19 1 19 C0.67 12.73 0.34 6.46 0 0 Z " fill="#98B1E8" transform="translate(81,73)"/>
<path d="M0 0 C1.875 1.125 1.875 1.125 3 3 C3.5 6.375 3.5 6.375 3 10 C0.5625 12.875 0.5625 12.875 -2 15 C-2.33 15.33 -2.66 15.66 -3 16 C-6.3125 16.375 -6.3125 16.375 -10 16 C-12.5 13.9375 -12.5 13.9375 -14 11 C-14.19337797 7.39027788 -14.04490502 5.16481215 -11.5703125 2.40625 C-7.6424624 -0.73603008 -4.94959003 -1.79985092 0 0 Z " fill="#090506" transform="translate(333,357)"/>
<path d="M0 0 C3.67728176 1.30237062 5.45385655 3.15262178 8 6.0625 C8.33 6.3925 8.66 6.7225 9 7.0625 C8.65274725 13.31304945 8.65274725 13.31304945 6.3125 16 C3.24716836 17.40839562 1.34404315 17.54022045 -2 17.0625 C-4.69990662 15.26256226 -6.5418865 13.978727 -8 11.0625 C-8.375 7.6875 -8.375 7.6875 -8 4.0625 C-5.39535603 0.99821298 -4.0400894 0.08416853 0 0 Z " fill="#080404" transform="translate(281,355.9375)"/>
<path d="M0 0 C2.375 1.375 2.375 1.375 4 4 C4.75641665 8.64655944 4.88955418 12.56302787 2.375 16.625 C-0.72904866 18.42208081 -2.46656253 18.58890625 -6 18 C-8.375 16.625 -8.375 16.625 -10 14 C-10.75641665 9.35344056 -10.88955418 5.43697213 -8.375 1.375 C-5.27095134 -0.42208081 -3.53343747 -0.58890625 0 0 Z " fill="#060404" transform="translate(307,345)"/>
<path d="M0 0 C2 1.625 2 1.625 3 4 C2.93439072 7.739729 2.76345433 10.0603639 0.375 13 C-3.11581787 14.46981805 -5.39148956 13.98413921 -9 13 C-11 11.375 -11 11.375 -12 9 C-11.93439072 5.260271 -11.76345433 2.9396361 -9.375 0 C-5.88418213 -1.46981805 -3.60851044 -0.98413921 0 0 Z " fill="#070303" transform="translate(192,41)"/>
</svg>
