<?xml version="1.0" encoding="UTF-8"?>
<svg version="1.1" xmlns="http://www.w3.org/2000/svg" width="512" height="512">
<path d="M0 0 C22.18772648 16.97128837 36.66985967 39.69287767 41.9453125 67.203125 C44.94494581 95.6575905 41.04128014 124.9054966 22.55078125 147.85546875 C20.36328125 150.16796875 20.36328125 150.16796875 18.36328125 151.16796875 C17.18765625 151.00296875 16.01203125 150.83796875 14.80078125 150.66796875 C10.49166762 150.60471571 8.4772136 152.2950833 5.36328125 155.16796875 C2.34117775 158.31909745 2.34117775 158.31909745 1.04296875 162.3359375 C1.13964844 163.33560547 1.13964844 163.33560547 1.23828125 164.35546875 C1.36328125 168.16796875 1.36328125 168.16796875 -1.13671875 171.16796875 C-8.15275244 176.40833959 -17.8748474 181.99176423 -26.63671875 183.16796875 C-26.45085205 183.68367432 -26.26498535 184.19937988 -26.07348633 184.73071289 C-4.96920266 243.9332689 -7.68272653 307.55791513 -34.32421875 364.54296875 C-44.11390518 384.94568691 -56.74632425 403.20504004 -72.27734375 419.65625 C-74.21030488 421.71402154 -76.03391013 423.80033487 -77.82421875 425.98046875 C-81.07109277 429.80517628 -84.80908062 432.9403729 -88.63671875 436.16796875 C-89.56226563 436.98136719 -90.4878125 437.79476563 -91.44140625 438.6328125 C-120.30742613 463.87098862 -154.98253356 480.60609373 -192.32421875 488.91796875 C-193.65815674 489.21622559 -193.65815674 489.21622559 -195.01904297 489.52050781 C-209.37750804 492.55732448 -223.42828353 493.51860445 -238.06176758 493.48364258 C-240.80395704 493.48049203 -243.54505278 493.50401428 -246.28710938 493.52929688 C-263.17335122 493.59056956 -279.67083812 491.54014931 -296.07421875 487.48046875 C-297.11223633 487.22555664 -298.15025391 486.97064453 -299.21972656 486.70800781 C-335.6464134 477.4323349 -368.65640503 459.27496869 -396.01953125 433.59765625 C-398.11733254 431.6501452 -400.23981648 429.7970884 -402.44921875 427.98046875 C-406.27294239 424.73442997 -409.41569039 420.9998818 -412.63671875 417.16796875 C-413.58652901 416.05668395 -414.53710804 414.94605594 -415.48828125 413.8359375 C-416.49644065 412.65524404 -417.50425255 411.47425376 -418.51171875 410.29296875 C-419.24503418 409.43529907 -419.24503418 409.43529907 -419.99316406 408.56030273 C-423.77428414 404.10036634 -424.99059024 402.06582694 -424.63671875 396.16796875 C-424.01278763 394.81411049 -423.35272951 393.47546667 -422.63671875 392.16796875 C-423.65233056 390.48529829 -424.70030066 388.8221268 -425.76171875 387.16796875 C-426.34179688 386.23984375 -426.921875 385.31171875 -427.51953125 384.35546875 C-429.46911359 381.82785081 -429.46911359 381.82785081 -432.56640625 382.10546875 C-434.08621094 382.13640625 -434.08621094 382.13640625 -435.63671875 382.16796875 C-440.26774556 379.42956218 -442.49716239 375.52638752 -444.88671875 370.85546875 C-445.26803955 370.1190918 -445.64936035 369.38271484 -446.04223633 368.62402344 C-460.30749213 340.30969634 -469.56830267 307.88331508 -469.875 276.05078125 C-469.88479385 275.20419952 -469.89458771 274.3576178 -469.90467834 273.48538208 C-470.47449173 211.39593407 -452.16911646 155.24473294 -409.63671875 109.16796875 C-408.81171875 108.23984375 -407.98671875 107.31171875 -407.13671875 106.35546875 C-402.24919184 100.87190198 -397.32794069 95.80734769 -391.63671875 91.16796875 C-391.12012695 90.7390332 -390.60353516 90.31009766 -390.07128906 89.86816406 C-376.19575457 78.3610532 -361.58717635 68.57026941 -345.63671875 60.16796875 C-345.00137207 59.83055664 -344.36602539 59.49314453 -343.71142578 59.14550781 C-323.4373068 48.54567514 -301.06598819 42.22659846 -278.63671875 38.16796875 C-276.76693359 37.81798828 -276.76693359 37.81798828 -274.859375 37.4609375 C-237.27211471 31.47625345 -194.8742059 35.29774917 -159.63671875 50.16796875 C-159.54390625 49.49894531 -159.45109375 48.82992187 -159.35546875 48.140625 C-154.1182117 26.48001295 -134.99931617 6.73395946 -116.4921875 -4.6484375 C-80.03479644 -25.87879466 -34.53871784 -23.99801284 0 0 Z " fill="#020101" transform="translate(469.63671875,18.83203125)"/>
<path d="M0 0 C0.0093457 0.91813477 0.01869141 1.83626953 0.02832031 2.78222656 C0.07239931 6.19705278 0.13403732 9.61063108 0.20751953 13.02490234 C0.23570088 14.50102196 0.25692966 15.97729169 0.27099609 17.45361328 C0.29246698 19.57923057 0.33913043 21.70304879 0.390625 23.828125 C0.41157227 25.1059082 0.43251953 26.38369141 0.45410156 27.70019531 C0.75170434 31.0529416 0.75170434 31.0529416 2.81152344 33.45214844 C5.04664491 35.35662402 5.04664491 35.35662402 8.625 34.9375 C12.25516924 34.3249155 12.25516924 34.3249155 14 31 C14.36999337 27.80009946 14.36999337 27.80009946 14.4140625 24.14453125 C14.43342865 23.48289474 14.4527948 22.82125824 14.4727478 22.13957214 C14.53242687 20.03067836 14.57888087 17.92172963 14.625 15.8125 C14.66319066 14.38083585 14.70224303 12.94919441 14.7421875 11.51757812 C14.83811773 8.01192688 14.92219197 4.50610555 15 1 C31.34663566 0.71991113 31.34663566 0.71991113 39.4375 2.4375 C40.2524292 2.60435303 41.0673584 2.77120605 41.90698242 2.94311523 C55.40440286 5.95478973 68.35669 11.48067499 81 17 C80.65683204 20.66045826 79.47744058 22.91305238 77.4375 25.875 C74.94230042 29.70097269 74.27390294 32.37113122 75 37 C75.98048938 39.06402685 75.98048938 39.06402685 78 40 C81.43776366 40.51200735 83.21564908 40.57043703 86.0625 38.5 C88.65104758 35.15993861 90.84829539 31.63320614 93 28 C95.82532005 30.49541741 97.3435372 33.26206047 99.125 36.5625 C102.7021028 42.8224299 106.98119408 47.85715515 112 53 C113.2375 54.299375 113.2375 54.299375 114.5 55.625 C115.7375 56.800625 115.7375 56.800625 117 58 C117.58523438 58.58007812 118.17046875 59.16015625 118.7734375 59.7578125 C125.44883852 66.08579488 133.05389273 70.47731444 141 75 C138.69302979 77.53841382 136.27631188 79.05093876 133.3125 80.75 C130.91325973 82.23213903 130.91325973 82.23213903 129 84 C128.23685184 87.75214514 128.19941691 89.62121801 130.125 92.9375 C132.87427882 94.49542467 134.87013784 94.25326179 138 94 C140.95944158 92.56487354 143.63331171 90.86976153 146.4140625 89.1171875 C149 88 149 88 151.03442383 88.66430664 C153.45728996 90.31074815 153.99380555 91.53638746 155.03515625 94.25390625 C155.36966797 95.10919922 155.70417969 95.96449219 156.04882812 96.84570312 C156.38333984 97.74224609 156.71785156 98.63878906 157.0625 99.5625 C157.40087891 100.43197266 157.73925781 101.30144531 158.08789062 102.19726562 C164.39741545 118.56297701 169.15973808 136.31605469 169 154 C168.08186523 154.0093457 167.16373047 154.01869141 166.21777344 154.02832031 C162.80294722 154.07239931 159.38936892 154.13403732 155.97509766 154.20751953 C154.49897804 154.23570088 153.02270831 154.25692966 151.54638672 154.27099609 C149.42076943 154.29246698 147.29695121 154.33913043 145.171875 154.390625 C143.8940918 154.41157227 142.61630859 154.43251953 141.29980469 154.45410156 C137.9470584 154.75170434 137.9470584 154.75170434 135.54785156 156.81152344 C133.64337598 159.04664491 133.64337598 159.04664491 134.0625 162.625 C134.6750845 166.25516924 134.6750845 166.25516924 138 168 C141.19990054 168.36999337 141.19990054 168.36999337 144.85546875 168.4140625 C145.51710526 168.43342865 146.17874176 168.4527948 146.86042786 168.4727478 C148.96932164 168.53242687 151.07827037 168.57888087 153.1875 168.625 C154.61916415 168.66319066 156.05080559 168.70224303 157.48242188 168.7421875 C160.98807312 168.83811773 164.49389445 168.92219197 168 169 C168.32167054 185.08749817 168.32167054 185.08749817 166.3125 192.9375 C166.04240112 194.05970947 166.04240112 194.05970947 165.7668457 195.20458984 C165.2055521 197.4780567 164.61162245 199.7395911 164 202 C163.81276367 202.69270996 163.62552734 203.38541992 163.43261719 204.09912109 C161.26211806 211.92079023 158.5476799 219.46675573 155.375 226.9375 C155.08584717 227.63053223 154.79669434 228.32356445 154.4987793 229.03759766 C153.75117181 230.73200291 152.88390052 232.37253388 152 234 C149 235 149 235 146.51171875 233.78515625 C144.63575733 232.64089763 142.76074895 231.49507502 140.88671875 230.34765625 C137.63864211 228.83130112 135.54309767 228.66423261 132 229 C130 230 130 230 129 232 C128.41654524 234.95746492 128.41654524 234.95746492 129 238 C131.69980177 241.1590784 134.67195248 243.1784988 138.25 245.25 C139.14203125 245.77078125 140.0340625 246.2915625 140.953125 246.828125 C141.96632813 247.40820312 141.96632813 247.40820312 143 248 C141.50478752 252.53661058 138.95819928 255.94923031 136 259.625 C135.26849731 260.54261108 135.26849731 260.54261108 134.5222168 261.47875977 C127.67580973 269.985036 120.53259773 278.13873585 112 285 C111.49500977 285.40669922 110.99001953 285.81339844 110.46972656 286.23242188 C108.75844976 287.60263654 107.03765211 288.95980467 105.3125 290.3125 C104.76553467 290.74570557 104.21856934 291.17891113 103.6550293 291.62524414 C100.56825547 294.00738234 97.70100073 295.75717786 94 297 C93.44570313 296.07316406 92.89140625 295.14632813 92.3203125 294.19140625 C91.58880774 292.98160991 90.85702232 291.77198324 90.125 290.5625 C89.76019531 289.95083984 89.39539063 289.33917969 89.01953125 288.70898438 C87.07848134 285.28457343 87.07848134 285.28457343 84 283 C79.86935374 282.62384874 79.86935374 282.62384874 76.125 284.125 C74.47870812 286.8688198 74.74407792 288.83344178 75 292 C76.30193774 294.9298482 76.30193774 294.9298482 78.0625 297.6875 C79.78515625 300.51171875 79.78515625 300.51171875 81 303 C80 306 80 306 77.10546875 307.61328125 C75.80612543 308.19477224 74.4994362 308.76000724 73.1875 309.3125 C72.48189941 309.61446289 71.77629883 309.91642578 71.04931641 310.22753906 C62.25920283 313.87338422 53.18063638 316.53495532 44 319 C42.09154297 319.51433594 42.09154297 319.51433594 40.14453125 320.0390625 C34.03427619 321.5165705 28.37555235 322.13279644 22.08203125 322.0703125 C21.0541449 322.06269897 21.0541449 322.06269897 20.00549316 322.05493164 C18.33694638 322.04183358 16.66845756 322.02166307 15 322 C14.98598145 320.6682373 14.98598145 320.6682373 14.97167969 319.30957031 C14.92759319 316.00654081 14.86595254 312.70479993 14.79248047 309.40234375 C14.76430389 307.97473063 14.74307273 306.54696247 14.72900391 305.11914062 C14.70752608 303.06299668 14.66086026 301.00870998 14.609375 298.953125 C14.58842773 297.71723633 14.56748047 296.48134766 14.54589844 295.20800781 C13.90674143 291.45195995 13.07807815 290.19627263 10 288 C6.37350049 287.91083846 6.37350049 287.91083846 3 289 C0.57829321 292.63256018 0.6955497 294.52578695 0.5859375 298.85546875 C0.56657135 299.51710526 0.5472052 300.17874176 0.5272522 300.86042786 C0.46757313 302.96932164 0.42111913 305.07827037 0.375 307.1875 C0.33680934 308.61916415 0.29775697 310.05080559 0.2578125 311.48242188 C0.16188227 314.98807312 0.07780803 318.49389445 0 322 C-6.90717935 322.13011955 -13.52388222 322.08105219 -20.3125 320.75 C-21.02905762 320.61505127 -21.74561523 320.48010254 -22.48388672 320.34106445 C-37.81187244 317.35959048 -52.50804185 312.98503646 -66 305 C-64.98187118 301.52139321 -63.79354551 298.55470544 -61.875 295.5 C-59.92004853 291.85075725 -59.35512578 290.05349507 -60 286 C-60.93597315 283.98048938 -60.93597315 283.98048938 -63 283 C-66.36948329 281.99868515 -66.36948329 281.99868515 -70 283 C-72.4932923 285.72468833 -74.22164212 288.77739997 -76 292 C-76.61875 293.010625 -77.2375 294.02125 -77.875 295.0625 C-78.24625 295.701875 -78.6175 296.34125 -79 297 C-83.53661058 295.50478752 -86.94923031 292.95819928 -90.625 290 C-91.23674072 289.51233154 -91.84848145 289.02466309 -92.47875977 288.5222168 C-100.985036 281.67580973 -109.13873585 274.53259773 -116 266 C-116.40669922 265.49500977 -116.81339844 264.99001953 -117.23242188 264.46972656 C-118.60263654 262.75844976 -119.95980467 261.03765211 -121.3125 259.3125 C-121.74570557 258.76553467 -122.17891113 258.21856934 -122.62524414 257.6550293 C-125.00738234 254.56825547 -126.75717786 251.70100073 -128 248 C-126.60974609 247.16855469 -126.60974609 247.16855469 -125.19140625 246.3203125 C-123.98160991 245.58880774 -122.77198324 244.85702232 -121.5625 244.125 C-120.64500977 243.57779297 -120.64500977 243.57779297 -119.70898438 243.01953125 C-116.28457343 241.07848134 -116.28457343 241.07848134 -114 238 C-113.85624578 234.62177584 -113.92463652 232.22609045 -115 229 C-122.25990525 228.29742852 -125.8714243 229.60999701 -131.8359375 233.78515625 C-132.55007812 234.18605469 -133.26421875 234.58695313 -134 235 C-137 234 -137 234 -138.6484375 230.96484375 C-139.23804969 229.62852489 -139.81258042 228.28548919 -140.375 226.9375 C-140.83289917 225.85927979 -140.83289917 225.85927979 -141.30004883 224.75927734 C-144.39014422 217.32066934 -146.89904315 209.77281711 -149 202 C-149.19754883 201.26990723 -149.39509766 200.53981445 -149.59863281 199.78759766 C-152.35388542 189.31448115 -153.4629516 179.82296015 -153 169 C-152.14245117 168.98018066 -151.28490234 168.96036133 -150.40136719 168.93994141 C-147.21052358 168.86170479 -144.0200526 168.77500657 -140.82958984 168.68261719 C-139.45044757 168.64440662 -138.07120833 168.60953998 -136.69189453 168.578125 C-134.70583033 168.53230376 -132.72008321 168.47333737 -130.734375 168.4140625 C-129.54038086 168.3826416 -128.34638672 168.3512207 -127.11621094 168.31884766 C-124.15482626 168.01584167 -122.40098218 167.73324918 -120 166 C-118.8283633 162.63239813 -118.8283633 162.63239813 -119 159 C-120.48592059 156.66341176 -120.48592059 156.66341176 -123 155 C-126.37921394 154.35789448 -126.37921394 154.35789448 -130.171875 154.390625 C-130.8542926 154.37408875 -131.53671021 154.35755249 -132.23980713 154.34051514 C-134.40996354 154.29210161 -136.57941972 154.27068135 -138.75 154.25 C-140.22529552 154.22183438 -141.70055851 154.19190611 -143.17578125 154.16015625 C-146.78370198 154.08634775 -150.39148972 154.03673106 -154 154 C-153.75505534 151.03057782 -153.50841917 148.06131777 -153.25878906 145.09228516 C-153.07089389 142.84711515 -152.88907409 140.60143409 -152.7109375 138.35546875 C-150.82067016 120.52980817 -144.70760068 103.58321264 -136 88 C-132.55402271 89.07444797 -129.51251115 90.13142644 -126.5 92.125 C-122.85075725 94.07995147 -121.05349507 94.64487422 -117 94 C-114.98048938 93.06402685 -114.98048938 93.06402685 -114 91 C-112.99868515 87.63051671 -112.99868515 87.63051671 -114 84 C-116.72468833 81.5067077 -119.77739997 79.77835788 -123 78 C-124.010625 77.38125 -125.02125 76.7625 -126.0625 76.125 C-127.0215625 75.568125 -127.0215625 75.568125 -128 75 C-121.79495483 56.85191091 -97.69812651 34.63918514 -81 26 C-76.92149582 27.35950139 -76.46833691 29.28045422 -74.4375 33 C-72.43076099 37.2118786 -72.43076099 37.2118786 -69 40 C-64.88917391 40.36275952 -64.88917391 40.36275952 -61.125 38.9375 C-59.24147612 35.69365331 -59.46865586 33.71940901 -60 30 C-61.45451237 27.29230608 -63.04879228 24.77001762 -64.78515625 22.234375 C-65.18605469 21.49703125 -65.58695312 20.7596875 -66 20 C-65 17 -65 17 -62.1484375 15.3515625 C-60.89691396 14.7624909 -59.63851652 14.18788767 -58.375 13.625 C-57.7042041 13.32045898 -57.0334082 13.01591797 -56.34228516 12.70214844 C-38.75798078 4.89693329 -19.34194115 -0.17716218 0 0 Z " fill="#D2EEFA" transform="translate(221,122)"/>
<path d="M0 0 C0.88026855 0.13921875 1.76053711 0.2784375 2.66748047 0.421875 C15.65119283 2.54608017 27.71131443 6.34598717 40 11 C39.75636719 12.61068359 39.75636719 12.61068359 39.5078125 14.25390625 C38.81578664 19.8108984 38.85414599 25.34514915 38.875 30.9375 C38.87113281 31.97068359 38.86726563 33.00386719 38.86328125 34.06835938 C38.87095679 40.12819654 39.21054178 45.99134574 40 52 C39.40388916 51.75878418 38.80777832 51.51756836 38.19360352 51.26904297 C14.37008365 41.73056372 -10.152661 34.56870985 -36 34.6875 C-37.89250488 34.69378418 -37.89250488 34.69378418 -39.82324219 34.70019531 C-50.7592496 34.83061712 -61.27471483 35.91351882 -72 38 C-72.72509766 38.13390137 -73.45019531 38.26780273 -74.19726562 38.40576172 C-106.93236714 44.59422614 -135.6230233 61.81944714 -160 84 C-160.74507813 84.67289062 -161.49015625 85.34578125 -162.2578125 86.0390625 C-188.14607205 110.66959284 -204.15689015 145.44046556 -211 180 C-211.24621094 181.19882813 -211.49242187 182.39765625 -211.74609375 183.6328125 C-215.12392448 203.71343383 -213.82650952 225.09025901 -210 245 C-209.8151001 246.05574219 -209.8151001 246.05574219 -209.62646484 247.1328125 C-202.04662841 289.83154303 -174.09658265 329.63993121 -138.93359375 354.34375 C-121.40130744 366.33283657 -102.60881789 375.50138279 -81.93359375 380.52099609 C-80.2278486 380.94355569 -78.53446414 381.41535608 -76.84375 381.89453125 C-35.26585666 393.48836689 11.96433029 384.32290845 49.15625 363.7421875 C62.59581903 356.03822178 74.46044336 346.26935861 86 336 C86.67804688 335.39671875 87.35609375 334.7934375 88.0546875 334.171875 C112.01895732 311.46888254 129.24245819 277.18595739 135 245 C135.14663086 244.22575684 135.29326172 243.45151367 135.44433594 242.65380859 C142.08339122 206.76721621 137.27048755 171.10921875 122.75268555 137.7956543 C122.09473564 136.22600734 121.53820903 134.6146271 121 133 C122.62808594 133.24363281 122.62808594 133.24363281 124.2890625 133.4921875 C129.65075766 134.15974567 134.97882637 134.14618916 140.375 134.125 C141.35210937 134.12886719 142.32921875 134.13273438 143.3359375 134.13671875 C149.61562862 134.1283681 155.76560603 133.75127613 162 133 C182.31332731 186.88965184 180.97790222 245.48418869 157.68359375 298.34765625 C147.92371801 319.79925145 134.94622158 339.47161278 118.52197266 356.42675781 C117.45278298 357.53196446 116.3905453 358.64391845 115.33349609 359.76074219 C101.59631454 374.25665233 86.27817014 386.01238468 69 396 C68.29214355 396.4134668 67.58428711 396.82693359 66.85498047 397.25292969 C54.36984757 404.45450712 41.37421642 409.50200179 27.72802734 414.08007812 C26.05549602 414.64407473 24.38771673 415.2227442 22.72900391 415.82617188 C16.17112132 418.17159341 9.46802176 419.39598722 2.625 420.625 C1.47 420.8415625 0.315 421.058125 -0.875 421.28125 C-13.23360607 423.54094998 -25.32776629 424.23945656 -37.875 424.25 C-38.6023233 424.25067474 -39.32964661 424.25134949 -40.07901001 424.25204468 C-52.27949184 424.23415467 -64.02386096 423.40089922 -76 421 C-76.87591797 420.83371094 -77.75183594 420.66742188 -78.65429688 420.49609375 C-111.7005508 414.12743668 -142.67891774 399.97184482 -169 379 C-169.98871094 378.21625 -170.97742188 377.4325 -171.99609375 376.625 C-184.58313652 366.41811029 -196.97871188 354.83749871 -206.58984375 341.75 C-208.06538299 339.73986086 -208.06538299 339.73986086 -211 338 C-214.63939932 338.31730524 -214.63939932 338.31730524 -218 339 C-225.26162049 329.79738032 -225.26162049 329.79738032 -226 326 C-225.525625 325.38125 -225.05125 324.7625 -224.5625 324.125 C-222.6572096 322.00604854 -222.6572096 322.00604854 -223.1796875 318.78125 C-224.06444277 314.70294952 -225.45399659 311.96481989 -227.5625 308.375 C-231.03308347 302.21447706 -233.76280358 295.92881025 -236.25 289.3125 C-236.56654541 288.47058105 -236.88309082 287.62866211 -237.20922852 286.76123047 C-238.16158431 284.18150705 -239.08577339 281.59347161 -240 279 C-240.34015137 278.04891357 -240.68030273 277.09782715 -241.03076172 276.11791992 C-243.4838727 269.05528781 -245.22104186 262.02595227 -246.625 254.6875 C-246.82867187 253.67494141 -247.03234375 252.66238281 -247.2421875 251.61914062 C-249.88413118 238.14692139 -251.35994851 224.98674393 -251.25 211.25 C-251.24689819 210.55411774 -251.24379639 209.85823547 -251.24060059 209.14126587 C-251.18261842 198.00152135 -250.78936237 187.01126658 -249 176 C-248.8870459 175.2776416 -248.7740918 174.5552832 -248.65771484 173.81103516 C-243.89706369 144.718167 -232.28628798 114.94827548 -215 91 C-214.54657227 90.36304199 -214.09314453 89.72608398 -213.62597656 89.06982422 C-207.43194173 80.41596727 -200.93407898 72.22493684 -193.52197266 64.57324219 C-192.45278298 63.46803554 -191.3905453 62.35608155 -190.33349609 61.23925781 C-176.60962281 46.75739097 -161.29171786 34.93683451 -144 25 C-142.84105225 24.33121826 -142.84105225 24.33121826 -141.65869141 23.64892578 C-98.28265196 -1.03248125 -48.96604807 -7.89034426 0 0 Z " fill="#DB626D" transform="translate(266,73)"/>
<path d="M0 0 C1.14855469 0.36222656 2.29710937 0.72445313 3.48046875 1.09765625 C26.31744911 9.14653224 43.73732616 26.54816561 54.4765625 47.94140625 C64.8265177 71.27642795 64.4829627 95.31236469 55.55541992 119.07788086 C52.85247979 125.82985343 49.1817785 133.8182215 44 139 C43.70115778 144.09249251 43.70115778 144.09249251 44.734375 148.9921875 C45 151 45 151 43.5234375 153.17578125 C42.81445312 153.88089844 42.10546875 154.58601562 41.375 155.3125 C40.68148437 156.03050781 39.98796875 156.74851563 39.2734375 157.48828125 C37 159 37 159 34.6640625 158.73046875 C33.34535156 158.36888672 33.34535156 158.36888672 32 158 C25.76196821 157.39443668 22.5248675 158.98441273 17.4375 162.1875 C2.76380538 170.88371675 -11.79494199 174.09561185 -28.8125 174.25 C-29.58875732 174.25942627 -30.36501465 174.26885254 -31.16479492 174.27856445 C-36.67398247 174.24746562 -41.68099557 173.40343442 -47 172 C-47.65911377 171.82839355 -48.31822754 171.65678711 -48.99731445 171.47998047 C-63.02563361 167.66814999 -75.10317519 161.77433097 -86 152 C-87.35931641 150.78183594 -87.35931641 150.78183594 -88.74609375 149.5390625 C-105.36863456 133.81566051 -115.49575299 112.04638605 -116.1953125 89.09375 C-116.65582113 61.94932478 -107.59492464 40.20200193 -88.875 20.4375 C-65.31702684 -2.5680793 -31.10910494 -9.87217228 0 0 Z " fill="#93D4A2" transform="translate(435,19)"/>
<path d="M0 0 C0 1.98 0 3.96 0 6 C-0.50225098 6.25579834 -1.00450195 6.51159668 -1.52197266 6.77514648 C-20.63347252 16.5530725 -37.2057702 27.33205857 -53 42 C-53.64324219 42.5775 -54.28648437 43.155 -54.94921875 43.75 C-82.17409792 69.31969784 -100.71070232 110.86867617 -102.11669922 148.08935547 C-103.50445746 197.14419277 -89.81811367 241.4485145 -56.16723633 277.69018555 C-39.85188564 294.89468723 -21.11356394 306.51716833 0 317 C0 318.65 0 320.3 0 322 C-22.41814854 323.16626206 -46.78112211 316.37443793 -66 305 C-64.98187118 301.52139321 -63.79354551 298.55470544 -61.875 295.5 C-59.92004853 291.85075725 -59.35512578 290.05349507 -60 286 C-60.93597315 283.98048938 -60.93597315 283.98048938 -63 283 C-66.36948329 281.99868515 -66.36948329 281.99868515 -70 283 C-72.4932923 285.72468833 -74.22164212 288.77739997 -76 292 C-76.61875 293.010625 -77.2375 294.02125 -77.875 295.0625 C-78.24625 295.701875 -78.6175 296.34125 -79 297 C-83.53661058 295.50478752 -86.94923031 292.95819928 -90.625 290 C-91.23674072 289.51233154 -91.84848145 289.02466309 -92.47875977 288.5222168 C-100.985036 281.67580973 -109.13873585 274.53259773 -116 266 C-116.40669922 265.49500977 -116.81339844 264.99001953 -117.23242188 264.46972656 C-118.60263654 262.75844976 -119.95980467 261.03765211 -121.3125 259.3125 C-121.74570557 258.76553467 -122.17891113 258.21856934 -122.62524414 257.6550293 C-125.00738234 254.56825547 -126.75717786 251.70100073 -128 248 C-126.60974609 247.16855469 -126.60974609 247.16855469 -125.19140625 246.3203125 C-123.98160991 245.58880774 -122.77198324 244.85702232 -121.5625 244.125 C-120.64500977 243.57779297 -120.64500977 243.57779297 -119.70898438 243.01953125 C-116.28457343 241.07848134 -116.28457343 241.07848134 -114 238 C-113.85624578 234.62177584 -113.92463652 232.22609045 -115 229 C-122.25990525 228.29742852 -125.8714243 229.60999701 -131.8359375 233.78515625 C-132.55007812 234.18605469 -133.26421875 234.58695313 -134 235 C-137 234 -137 234 -138.6484375 230.96484375 C-139.23804969 229.62852489 -139.81258042 228.28548919 -140.375 226.9375 C-140.83289917 225.85927979 -140.83289917 225.85927979 -141.30004883 224.75927734 C-144.39014422 217.32066934 -146.89904315 209.77281711 -149 202 C-149.19754883 201.26990723 -149.39509766 200.53981445 -149.59863281 199.78759766 C-152.35388542 189.31448115 -153.4629516 179.82296015 -153 169 C-152.14245117 168.98018066 -151.28490234 168.96036133 -150.40136719 168.93994141 C-147.21052358 168.86170479 -144.0200526 168.77500657 -140.82958984 168.68261719 C-139.45044757 168.64440662 -138.07120833 168.60953998 -136.69189453 168.578125 C-134.70583033 168.53230376 -132.72008321 168.47333737 -130.734375 168.4140625 C-129.54038086 168.3826416 -128.34638672 168.3512207 -127.11621094 168.31884766 C-124.15482626 168.01584167 -122.40098218 167.73324918 -120 166 C-118.8283633 162.63239813 -118.8283633 162.63239813 -119 159 C-120.48592059 156.66341176 -120.48592059 156.66341176 -123 155 C-126.37921394 154.35789448 -126.37921394 154.35789448 -130.171875 154.390625 C-130.8542926 154.37408875 -131.53671021 154.35755249 -132.23980713 154.34051514 C-134.40996354 154.29210161 -136.57941972 154.27068135 -138.75 154.25 C-140.22529552 154.22183438 -141.70055851 154.19190611 -143.17578125 154.16015625 C-146.78370198 154.08634775 -150.39148972 154.03673106 -154 154 C-153.75505534 151.03057782 -153.50841917 148.06131777 -153.25878906 145.09228516 C-153.07089389 142.84711515 -152.88907409 140.60143409 -152.7109375 138.35546875 C-150.82067016 120.52980817 -144.70760068 103.58321264 -136 88 C-132.55402271 89.07444797 -129.51251115 90.13142644 -126.5 92.125 C-122.85075725 94.07995147 -121.05349507 94.64487422 -117 94 C-114.98048938 93.06402685 -114.98048938 93.06402685 -114 91 C-112.99868515 87.63051671 -112.99868515 87.63051671 -114 84 C-116.72468833 81.5067077 -119.77739997 79.77835788 -123 78 C-124.010625 77.38125 -125.02125 76.7625 -126.0625 76.125 C-127.0215625 75.568125 -127.0215625 75.568125 -128 75 C-121.79495483 56.85191091 -97.69812651 34.63918514 -81 26 C-76.92149582 27.35950139 -76.46833691 29.28045422 -74.4375 33 C-72.43076099 37.2118786 -72.43076099 37.2118786 -69 40 C-64.88917391 40.36275952 -64.88917391 40.36275952 -61.125 38.9375 C-59.24147612 35.69365331 -59.46865586 33.71940901 -60 30 C-61.45451237 27.29230608 -63.04879228 24.77001762 -64.78515625 22.234375 C-65.18605469 21.49703125 -65.58695312 20.7596875 -66 20 C-65 17 -65 17 -62.1484375 15.3515625 C-60.89691396 14.7624909 -59.63851652 14.18788767 -58.375 13.625 C-57.7042041 13.32045898 -57.0334082 13.01591797 -56.34228516 12.70214844 C-38.93247921 4.9743886 -19.21204377 -0.4878058 0 0 Z " fill="#9CC5F9" transform="translate(221,122)"/>
<path d="M0 0 C6.67773123 5.23108235 11.27160459 11.64078058 13 20 C13.10616858 22.01898628 13.15852508 24.04105278 13.17700195 26.06274414 C13.19625481 27.9009951 13.19625481 27.9009951 13.21589661 29.77638245 C13.22406853 31.11263623 13.23151139 32.44889463 13.23828125 33.78515625 C13.24235678 34.46280973 13.2464323 35.14046322 13.25063133 35.83865166 C13.27146532 39.43043584 13.28577458 43.02218221 13.29516602 46.61401367 C13.30618296 50.296706 13.34053462 53.97878618 13.38033772 57.66126347 C13.40668274 60.51573183 13.41487385 63.37005879 13.41844749 66.22463799 C13.42559743 68.23351073 13.45196366 70.2422861 13.47883606 72.25099182 C13.45332955 83.12787032 11.62338493 92.22373449 3.93359375 100.27734375 C-3.32364657 106.74288512 -9.28634466 108.14643944 -18.86425781 108.17700195 C-19.75907364 108.18357315 -20.65388947 108.19014435 -21.57582092 108.19691467 C-24.53492318 108.21661299 -27.49397476 108.22830254 -30.453125 108.23828125 C-31.4654998 108.24235678 -32.4778746 108.2464323 -33.52092743 108.25063133 C-38.87934667 108.27147724 -44.23774041 108.2857854 -49.59619141 108.29516602 C-55.12201432 108.30622761 -60.64743425 108.3406291 -66.17311478 108.38033772 C-70.43002049 108.40651894 -74.68683037 108.4148592 -78.94380951 108.41844749 C-80.98030062 108.42330948 -83.01678755 108.43491237 -85.05319977 108.45348549 C-87.90851028 108.47790887 -90.76278044 108.47690601 -93.61816406 108.4699707 C-94.45273636 108.48278076 -95.28730865 108.49559082 -96.14717102 108.50878906 C-104.1788617 108.43799021 -110.47091575 105.16703114 -116.39453125 99.83984375 C-122.27780304 93.09770016 -124.52038744 84.60800951 -124.40234375 75.8203125 C-123.2601616 67.8139483 -118.72673869 60.36597625 -112.28317261 55.5211792 C-104.21968945 50.14882899 -96.48383338 49.43919199 -86.9921875 49.609375 C-85.18223801 49.61786469 -85.18223801 49.61786469 -83.33572388 49.62652588 C-79.51506394 49.648759 -75.69537229 49.69893323 -71.875 49.75 C-69.27084696 49.77008178 -66.66667909 49.78832959 -64.0625 49.8046875 C-57.70800787 49.84858103 -51.35407314 49.91536219 -45 50 C-45.0314209 48.62448975 -45.0314209 48.62448975 -45.06347656 47.22119141 C-45.13221946 43.77316965 -45.18207152 40.32589065 -45.21972656 36.87744141 C-45.23966981 35.39359952 -45.2668349 33.90983445 -45.30175781 32.42626953 C-45.53239269 22.366519 -45.12103175 13.95660048 -39.2109375 5.4140625 C-28.53178786 -4.992428 -13.21631571 -8.04274939 0 0 Z " fill="#030405" transform="translate(245,204)"/>
<path d="M0 0 C9.76346554 3.42941727 22.30476943 8.33830914 27.26921082 17.98381042 C29.64102 24.52744441 28.16048909 30.31800485 25.32885742 36.46166992 C24.10689535 38.89727625 22.86711782 41.31594901 21.60546875 43.73046875 C20.93496132 45.05020319 20.26632388 46.37088916 19.59944153 47.69245911 C17.84065522 51.16638319 16.05863796 54.62783477 14.27075195 58.08685303 C12.49657574 61.52734338 10.74152075 64.977531 8.98632812 68.42773438 C8.29504554 69.78632209 7.60373097 71.14489352 6.91238403 72.50344849 C6.40267248 73.50515768 6.40267248 73.50515768 5.88266373 74.52710342 C4.85798053 76.53803939 3.8301921 78.54736182 2.80172729 80.55636597 C-1.74883204 89.45722913 -6.15498637 98.41609126 -10.38545227 107.47465515 C-19.75442811 127.43443847 -19.75442811 127.43443847 -27.1484375 131.05078125 C-30.77120603 132.25671653 -34.28006636 132.46454847 -38.0625 132.625 C-38.81257324 132.66077148 -39.56264648 132.69654297 -40.33544922 132.73339844 C-42.55667143 132.83304737 -44.77809199 132.91731011 -47 133 C-48.16660156 133.05414063 -49.33320313 133.10828125 -50.53515625 133.1640625 C-56.52273274 133.33059434 -60.85318013 133.19102832 -66 130 C-72.40360491 123.49141796 -76.62957574 115.52333127 -81.1875 107.6875 C-82.45490682 105.52547285 -83.72471116 103.36486739 -84.99481201 101.204422 C-85.83057326 99.78265756 -86.66558177 98.36045036 -87.49981689 96.93778992 C-91.23080917 90.58212935 -95.06319711 84.29170325 -98.96557617 78.03979492 C-101.80069802 73.46398103 -103.16982839 70.12646682 -103.3125 64.75 C-103.34988281 63.83734375 -103.38726562 62.9246875 -103.42578125 61.984375 C-102.74930291 57.2428204 -100.94834311 53.62154036 -97.28393555 50.57177734 C-95.2942265 49.22817587 -93.27011229 48.00668489 -91.1875 46.8125 C-90.50107422 46.40064453 -89.81464844 45.98878906 -89.10742188 45.56445312 C-87.74312223 44.75000367 -86.37254283 43.94597273 -84.99560547 43.15307617 C-83.68248645 42.39434591 -82.37892713 41.61878265 -81.08642578 40.82543945 C-76.06676987 37.78949868 -72.71017763 37.19732378 -67 38 C-59.57606915 40.04798093 -55.35146613 45.04779966 -51.51953125 51.48828125 C-50.6697214 53.05083485 -49.84169421 54.6255709 -49.04296875 56.21484375 C-48.12020458 58.16768109 -48.12020458 58.16768109 -46 59 C-45.77272217 58.22527344 -45.54544434 57.45054688 -45.3112793 56.65234375 C-43.56012367 51.77479988 -41.30666134 47.20852883 -39.01953125 42.5625 C-38.52845383 41.56420166 -38.0373764 40.56590332 -37.53141785 39.53735352 C-36.49233491 37.43159618 -35.45080211 35.32704618 -34.40698242 33.22363281 C-33.34574777 31.07808966 -32.29167566 28.92898854 -31.24487305 26.77636719 C-29.72713787 23.65539736 -28.18835897 20.54563006 -26.64453125 17.4375 C-26.18383743 16.48109619 -25.72314362 15.52469238 -25.24848938 14.53930664 C-19.63173794 3.37827314 -12.79536482 -2.05454029 0 0 Z " fill="#020303" transform="translate(444,40)"/>
<path d="M0 0 C-1.07894531 0.46148437 -2.15789062 0.92296875 -3.26953125 1.3984375 C-27.14028828 11.72725993 -49.04926117 24.03698027 -68.41650391 41.57226562 C-69.96420914 42.96772973 -71.53167789 44.33721212 -73.10546875 45.703125 C-108.15332448 76.472733 -129.8006783 120.889898 -139 166 C-139.18079102 166.88429687 -139.36158203 167.76859375 -139.54785156 168.6796875 C-144.33020572 193.39960958 -144.0222144 221.35820948 -139 246 C-138.80132324 246.98436035 -138.60264648 247.9687207 -138.39794922 248.98291016 C-131.32638218 282.9423231 -117.69793716 314.78961394 -96 342 C-95.29488281 342.8971875 -94.58976562 343.794375 -93.86328125 344.71875 C-85.74723416 354.86016612 -77.1129511 364.80264203 -67 373 C-65.92435272 373.89958842 -64.8488451 374.79934383 -63.7734375 375.69921875 C-45.31678857 390.97806657 -24.45030334 403.51904518 -2 412 C-2 412.66 -2 413.32 -2 414 C-31.16149912 407.88830857 -58.81581543 393.4724593 -82 375 C-82.98871094 374.21625 -83.97742188 373.4325 -84.99609375 372.625 C-97.58313652 362.41811029 -109.97871188 350.83749871 -119.58984375 337.75 C-121.06538299 335.73986086 -121.06538299 335.73986086 -124 334 C-127.63939932 334.31730524 -127.63939932 334.31730524 -131 335 C-138.26162049 325.79738032 -138.26162049 325.79738032 -139 322 C-138.525625 321.38125 -138.05125 320.7625 -137.5625 320.125 C-135.6572096 318.00604854 -135.6572096 318.00604854 -136.1796875 314.78125 C-137.06444277 310.70294952 -138.45399659 307.96481989 -140.5625 304.375 C-144.03308347 298.21447706 -146.76280358 291.92881025 -149.25 285.3125 C-149.56654541 284.47058105 -149.88309082 283.62866211 -150.20922852 282.76123047 C-151.16158431 280.18150705 -152.08577339 277.59347161 -153 275 C-153.34015137 274.04891357 -153.68030273 273.09782715 -154.03076172 272.11791992 C-156.4838727 265.05528781 -158.22104186 258.02595227 -159.625 250.6875 C-159.82867187 249.67494141 -160.03234375 248.66238281 -160.2421875 247.61914062 C-162.88413118 234.14692139 -164.35994851 220.98674393 -164.25 207.25 C-164.24689819 206.55411774 -164.24379639 205.85823547 -164.24060059 205.14126587 C-164.18261842 194.00152135 -163.78936237 183.01126658 -162 172 C-161.8870459 171.2776416 -161.7740918 170.5552832 -161.65771484 169.81103516 C-156.89706369 140.718167 -145.28628798 110.94827548 -128 87 C-127.54657227 86.36304199 -127.09314453 85.72608398 -126.62597656 85.06982422 C-120.43194173 76.41596727 -113.93407898 68.22493684 -106.52197266 60.57324219 C-105.45278298 59.46803554 -104.3905453 58.35608155 -103.33349609 57.23925781 C-89.60962281 42.75739097 -74.29171786 30.93683451 -57 21 C-55.84105225 20.33121826 -55.84105225 20.33121826 -54.65869141 19.64892578 C-40.70090992 11.70680634 -26.25504128 5.96412621 -11 1 C-10.29456055 0.76168457 -9.58912109 0.52336914 -8.86230469 0.27783203 C-5.45384343 -0.80914672 -3.40016714 -1.01986679 0 0 Z " fill="#C95668" transform="translate(179,77)"/>
<path d="M0 0 C2.88185218 0.51008629 5.29303198 1.52791141 7.890625 2.84765625 C8.95410156 3.38422852 8.95410156 3.38422852 10.0390625 3.93164062 C10.76867187 4.30482422 11.49828125 4.67800781 12.25 5.0625 C12.99507813 5.43955078 13.74015625 5.81660156 14.5078125 6.20507812 C16.34037531 7.13310673 18.17043676 8.06607179 20 9 C19.40446177 12.58500844 18.44057854 15.51655172 16.85083008 18.77929688 C16.3970549 19.71793579 15.94327972 20.65657471 15.47575378 21.62365723 C14.97457535 22.64503784 14.47339691 23.66641846 13.95703125 24.71875 C13.42858109 25.80619507 12.90013092 26.89364014 12.35566711 28.01403809 C11.19452022 30.40196242 10.03124775 32.78874508 8.86529541 35.17431641 C6.93916319 39.11898742 5.03249629 43.07293175 3.12646484 47.02734375 C0.0644722 53.37544073 -3.0255781 59.70927264 -6.13850594 66.032547 C-7.92651711 69.66626707 -9.70367729 73.30457355 -11.45922852 76.95410156 C-13.19447892 80.56053044 -14.95466621 84.15371553 -16.73329735 87.73893738 C-17.3981794 89.09010032 -18.05405391 90.4457367 -18.70040321 91.80586243 C-19.59584211 93.68619519 -20.52242819 95.54771639 -21.45825195 97.40820312 C-21.97498978 98.46753052 -22.4917276 99.52685791 -23.02412415 100.61828613 C-25 103 -25 103 -28.57437134 103.83346558 C-30.27005753 103.91590012 -30.27005753 103.91590012 -32 104 C-32.77609619 104.08459473 -33.55219238 104.16918945 -34.35180664 104.25634766 C-36.58812422 104.42769876 -38.82162921 104.53155251 -41.0625 104.625 C-41.83916016 104.69589844 -42.61582031 104.76679688 -43.41601562 104.83984375 C-45.86944742 104.91878567 -47.67459655 104.79682633 -50 104 C-52.69760528 101.42777638 -54.23464395 98.25378305 -56 95 C-56.7088907 93.8033707 -57.42426072 92.61056492 -58.14477539 91.42089844 C-60.62800765 87.31980909 -63.06517178 83.19245582 -65.5 79.0625 C-66.74945484 76.9485038 -67.99960265 74.83492113 -69.25048828 72.72177124 C-70.05577814 71.35901182 -70.85887869 69.99495604 -71.65966797 68.62954712 C-73.38148612 65.69881312 -75.12571792 62.80451863 -76.96484375 59.94482422 C-77.52300781 59.07486816 -78.08117187 58.20491211 -78.65625 57.30859375 C-79.13900391 56.58341553 -79.62175781 55.8582373 -80.11914062 55.11108398 C-81.289415 52.30638263 -81.00969289 50.83858155 -80 48 C-78.57299805 46.59033203 -78.57299805 46.59033203 -76.76171875 45.5078125 C-75.77848633 44.91613281 -75.77848633 44.91613281 -74.77539062 44.3125 C-73.74188477 43.7246875 -73.74188477 43.7246875 -72.6875 43.125 C-72.01009766 42.70992187 -71.33269531 42.29484375 -70.63476562 41.8671875 C-65.7233467 38.98658989 -65.7233467 38.98658989 -63.01147461 39.03686523 C-59.92151212 40.51640183 -58.91264519 42.79872905 -57.1796875 45.71484375 C-56.83495392 46.28578262 -56.49022034 46.8567215 -56.13504028 47.44496155 C-55.03654804 49.26902921 -53.95530629 51.10261395 -52.875 52.9375 C-51.7843529 54.76670121 -50.69025611 56.59376052 -49.59353638 58.41932678 C-48.60015942 60.07648709 -47.61601441 61.73917097 -46.63232422 63.40209961 C-45.11078802 66.0375673 -45.11078802 66.0375673 -43 68 C-38.44886286 68.5770254 -38.44886286 68.5770254 -34.44857788 66.801651 C-32.68616589 64.60967267 -31.51163581 62.38205336 -30.26025391 59.86108398 C-29.73605865 58.81246689 -29.2118634 57.76384979 -28.67178345 56.68345642 C-28.11236053 55.54912674 -27.55293762 54.41479706 -26.9765625 53.24609375 C-26.1017775 51.49015648 -26.1017775 51.49015648 -25.20932007 49.69874573 C-23.65731838 46.5832991 -22.11254153 43.4643243 -20.5692749 40.34454346 C-19.01397909 37.20349132 -17.45207322 34.06573133 -15.890625 30.92773438 C-13.58960365 26.30185818 -11.29233265 21.67414083 -8.99853516 17.04467773 C-8.24216766 15.52050735 -8.24216766 15.52050735 -7.47052002 13.96554565 C-6.48900477 11.9861586 -5.50980158 10.00562342 -4.53289795 8.0239563 C-4.08295471 7.1150766 -3.63301147 6.2061969 -3.16943359 5.26977539 C-2.77372162 4.46770157 -2.37800964 3.66562775 -1.9703064 2.83924866 C-1 1 -1 1 0 0 Z " fill="#F5F3F5" transform="translate(437,54)"/>
<path d="M0 0 C4.19726333 1.73365224 6.46366371 4.27251948 9 8 C9.50120544 11.03527832 9.50120544 11.03527832 9.50170898 14.45507812 C9.51108994 15.73991089 9.52047089 17.02474365 9.53013611 18.34851074 C9.51965745 19.74276396 9.50828838 21.13701073 9.49609375 22.53125 C9.49624883 23.96944247 9.49773934 25.40763537 9.50050354 26.8458252 C9.50188576 29.85525054 9.48936002 32.86419827 9.46655273 35.87353516 C9.43816799 39.72378862 9.44090747 43.57324894 9.45364285 47.4235611 C9.46061035 50.39193451 9.45279864 53.3601258 9.44038582 56.32847595 C9.43588168 57.74779054 9.43552543 59.16712474 9.43945122 60.58644104 C9.4423736 62.57263422 9.42365997 64.55882333 9.40405273 66.54492188 C9.39864975 67.67345581 9.39324677 68.80198975 9.38768005 69.96472168 C8.79706323 74.58886067 6.56383142 78.03014048 3 81 C-1.37845851 82.45948617 -5.43416014 82.74600712 -10 82 C-13.9805844 79.74171514 -16.54666871 77.35999388 -18 73 C-18.11915404 70.93683653 -18.17962839 68.87010724 -18.20874023 66.80371094 C-18.22803085 65.5251825 -18.24732147 64.24665405 -18.26719666 62.92938232 C-18.28200489 61.53105687 -18.29577815 60.13272013 -18.30859375 58.734375 C-18.31516558 58.02874672 -18.3217374 57.32311844 -18.32850838 56.59610748 C-18.36107522 52.85982772 -18.38553074 49.12357612 -18.4050293 45.38720703 C-18.42282725 42.3024729 -18.45762388 39.21865559 -18.50756836 36.13427734 C-18.56791802 32.4024422 -18.59852436 28.67145543 -18.60820198 24.93915558 C-18.6167338 23.52138642 -18.63549624 22.10363855 -18.6649456 20.6861496 C-18.90989274 8.22356234 -18.90989274 8.22356234 -15.08618164 3.63769531 C-10.53450507 -0.71142121 -6.07198088 -0.52758128 0 0 Z " fill="#2A4C65" transform="translate(233,215)"/>
<path d="M0 0 C-1.03898437 0.75023438 -2.07796875 1.50046875 -3.1484375 2.2734375 C-26.91751832 19.6256943 -42.5293399 41.07617233 -47.58203125 70.375 C-50.57929638 96.36997238 -44.35599728 122.30183551 -28.1875 143.1875 C-21.63239185 150.96774397 -14.78801842 157.88007926 -6.2265625 163.4296875 C-3.87967495 165.08486083 -1.97261284 166.91929878 0 169 C-12.61573808 166.00981377 -23.40160464 159.60965415 -33 151 C-34.35931641 149.78183594 -34.35931641 149.78183594 -35.74609375 148.5390625 C-52.36863456 132.81566051 -62.49575299 111.04638605 -63.1953125 88.09375 C-63.65582113 60.94932478 -54.59492464 39.20200193 -35.875 19.4375 C-29.75440098 13.46041848 -8.84995406 -4.42497703 0 0 Z " fill="#76BFA1" transform="translate(382,20)"/>
<path d="M0 0 C1.65125885 0.00033989 1.65125885 0.00033989 3.33587646 0.00068665 C4.51828918 0.0161705 5.7007019 0.03165436 6.91894531 0.04760742 C8.13406799 0.05185226 9.34919067 0.05609711 10.60113525 0.06047058 C14.4833387 0.07726741 18.36502367 0.11492279 22.24707031 0.15307617 C24.87857323 0.16812165 27.51008429 0.18181029 30.14160156 0.1940918 C36.59360148 0.22717432 43.04529885 0.27738439 49.49707031 0.34057617 C49.54605469 1.36795898 49.59503906 2.3953418 49.64550781 3.45385742 C49.72066267 4.8536167 49.79620468 6.25335523 49.87207031 7.65307617 C49.90300781 8.3240332 49.93394531 8.99499023 49.96582031 9.6862793 C50.30304506 15.67201858 51.33478514 21.46427541 52.49707031 27.34057617 C45.16893172 27.43346139 37.84092109 27.50443434 30.51231194 27.54782486 C27.10890714 27.56865563 23.70590657 27.59688875 20.30273438 27.64233398 C16.38579225 27.69430967 12.46901097 27.71355886 8.55175781 27.73120117 C7.3359201 27.75184631 6.1200824 27.77249146 4.86740112 27.79376221 C-5.7277839 27.79656836 -5.7277839 27.79656836 -10.50292969 23.34057617 C-13.54983139 18.871787 -14.46298805 14.62617222 -13.50292969 9.34057617 C-10.23874301 3.1619371 -7.09474602 -0.04881706 0 0 Z " fill="#355D7C" transform="translate(149.5029296875,269.659423828125)"/>
</svg>
